<svg width="241" height="93" viewBox="0 0 241 93" fill="none" xmlns="http://www.w3.org/2000/svg">
<path d="M75.0469 54.4375H61.9219V1.9375H39.1875L0.75 54.9062V70.375H44.5781V91H61.9219V70.375H75.0469V54.4375ZM19.5 54.4375L44.5781 19.9844V54.4375H19.5ZM119.812 92.1719C142.312 92.1719 156.609 74.5938 156.609 46.4688C156.609 18.3438 142.312 0.765625 119.812 0.765625C97.3125 0.765625 83.0156 18.3438 83.0156 46.4688C83.0156 74.5938 97.3125 92.1719 119.812 92.1719ZM119.812 76.7031C108.562 76.7031 102 65.6875 102 46.4688C102 27.25 108.562 16.2344 119.812 16.2344C131.062 16.2344 137.625 27.25 137.625 46.4688C137.625 65.6875 131.062 76.7031 119.812 76.7031ZM240.047 54.4375H226.922V1.9375H204.188L165.75 54.9062V70.375H209.578V91H226.922V70.375H240.047V54.4375ZM184.5 54.4375L209.578 19.9844V54.4375H184.5Z" fill="#FEDDD4"/>
</svg>
