<svg width="30" height="30" viewBox="0 0 30 30" fill="none" xmlns="http://www.w3.org/2000/svg">
<path d="M29.4999 15C29.4999 17.8678 28.6495 20.6713 27.0562 23.0558C25.4629 25.4403 23.1983 27.2988 20.5488 28.3962C17.8993 29.4937 14.9839 29.7809 12.1711 29.2214C9.35843 28.6619 6.77479 27.2809 4.74694 25.253C2.71909 23.2252 1.3381 20.6415 0.778619 17.8288C0.219136 15.0161 0.506283 12.1006 1.60375 9.45109C2.70122 6.80156 4.55971 4.53697 6.94421 2.94369C9.32871 1.35041 12.1321 0.5 14.9999 0.5C18.8456 0.5 22.5337 2.02767 25.2529 4.74695C27.9722 7.46623 29.4999 11.1544 29.4999 15Z" stroke="black"/>
<path d="M7.59509 16.2151H22.405C22.7336 16.2151 23 15.8949 23 15.4999C23 15.105 22.7336 14.7848 22.405 14.7848H7.59504C7.26643 14.7848 7 15.105 7 15.4999C7 15.8949 7.26643 16.2151 7.59509 16.2151Z" fill="black"/>
<path d="M17.4693 21C17.6005 21 17.7326 20.9482 17.8425 20.8415L22.7785 16.0566C22.9186 15.9209 23 15.7162 23 15.5C23 15.2838 22.9186 15.0791 22.7785 14.9434L17.8425 10.1585C17.5867 9.91059 17.2121 9.95874 17.0058 10.2662C16.7995 10.5736 16.8396 11.0238 17.0954 11.2718L21.4572 15.4999L17.0954 19.7282C16.8396 19.9762 16.7995 20.4264 17.0058 20.7338C17.1234 20.9089 17.2956 21 17.4693 21Z" fill="black"/>
</svg>
