<svg width="60" height="60" viewBox="0 0 60 60" fill="none" xmlns="http://www.w3.org/2000/svg">
<path d="M0 48V56C0 58.2092 1.91874 60 4.28568 60H55.7143C58.0813 60 59.9999 58.2092 59.9999 56V48H0Z" fill="#B5DBFF"/>
<path d="M57.0248 48V56.0002C57.0248 58.2092 55.1061 60 52.7393 60H55.7143C58.0812 60 59.9998 58.2092 59.9998 56.0002V48H57.0248Z" fill="#97D0FF"/>
<path d="M0 15.9999V51.9999C0 54.209 1.91874 55.9998 4.28555 55.9998H55.7143C58.0813 55.9998 59.9999 54.209 59.9999 51.9999V15.9999H0Z" fill="#EDF5FF"/>
<path d="M57.0248 15.9999V51.9999C57.0248 54.209 55.1061 55.9998 52.7393 55.9998H55.7143C58.0812 55.9998 59.9998 54.209 59.9998 51.9999V15.9999H57.0248Z" fill="#D5E8FE"/>
<path d="M60.0008 18V7.9999C60.0008 5.79077 58.0821 4.00006 55.7153 4.00006H4.28652C1.91959 4.00006 0.000976562 5.79089 0.000976562 7.9999V18H60.0008Z" fill="#FBAB16"/>
<path d="M12.8572 8.90547H10.7142C10.1785 8.90547 9.74414 8.50008 9.74414 8.00004C9.74414 7.5 10.1785 7.0946 10.7142 7.0946H12.8572C13.3929 7.0946 13.8273 7.5 13.8273 8.00004C13.8273 8.50008 13.3929 8.90547 12.8572 8.90547Z" fill="#FBAB16"/>
<path d="M19.2859 8.90547H17.143C16.6072 8.90547 16.1729 8.50008 16.1729 8.00004C16.1729 7.5 16.6072 7.0946 17.143 7.0946H19.2857C19.8215 7.0946 20.2558 7.5 20.2558 8.00004C20.2558 8.50008 19.8216 8.90547 19.2859 8.90547Z" fill="#FBAB16"/>
<path d="M42.857 8.90547H40.7142C40.1785 8.90547 39.7441 8.50008 39.7441 8.00004C39.7441 7.5 40.1785 7.0946 40.7142 7.0946H42.857C43.3928 7.0946 43.8271 7.5 43.8271 8.00004C43.8271 8.50008 43.3928 8.90547 42.857 8.90547Z" fill="#FBAB16"/>
<path d="M49.2859 8.90547H47.143C46.6072 8.90547 46.1729 8.50008 46.1729 8.00004C46.1729 7.5 46.6072 7.0946 47.143 7.0946H49.2859C49.8216 7.0946 50.256 7.5 50.256 8.00004C50.256 8.50008 49.8216 8.90547 49.2859 8.90547Z" fill="#FBAB16"/>
<path d="M12.8571 8.00004C12.8571 9.10455 13.8164 10.0001 15 10.0001C16.1835 10.0001 17.1429 9.10467 17.1429 8.00004V2.00004C17.1427 0.895412 16.1834 0 14.9998 0C13.8164 0 12.8569 0.895412 12.8569 2.00004V8.00004H12.8571Z" fill="#596C76"/>
<path d="M42.8569 8.00004C42.8569 9.10455 43.8163 10.0001 44.9998 10.0001C46.1834 10.0001 47.1427 9.10467 47.1427 8.00004V2.00004C47.1427 0.895412 46.1834 0 44.9998 0C43.8163 0 42.8569 0.895412 42.8569 2.00004V8.00004Z" fill="#596C76"/>
<path d="M55.7143 3.99994H52.7393C55.1062 3.99994 57.0248 5.79076 57.0248 7.99978V18H59.9998V7.9999C59.9999 5.79076 58.0812 3.99994 55.7143 3.99994Z" fill="#FBAB16"/>
<path d="M0 13.0946H60V14.9055H0V13.0946Z" fill="#FBAB16"/>
<path d="M21.4286 26.9055H17.143C16.6072 26.9055 16.1729 26.5001 16.1729 26C16.1729 25.5 16.6072 25.0946 17.143 25.0946H21.4286C21.9644 25.0946 22.3987 25.5 22.3987 26C22.3987 26.5001 21.9645 26.9055 21.4286 26.9055Z" fill="#596C76"/>
<path d="M21.4286 36.9054H17.143C16.6072 36.9054 16.1729 36.5 16.1729 36C16.1729 35.4999 16.6072 35.0945 17.143 35.0945H21.4286C21.9644 35.0945 22.3987 35.4999 22.3987 36C22.3987 36.5 21.9645 36.9054 21.4286 36.9054Z" fill="#596C76"/>
<path d="M32.1431 26.9055H27.8573C27.3216 26.9055 26.8872 26.5001 26.8872 26C26.8872 25.5 27.3216 25.0946 27.8573 25.0946H32.1431C32.6789 25.0946 33.1132 25.5 33.1132 26C33.1132 26.5001 32.6789 26.9055 32.1431 26.9055Z" fill="#596C76"/>
<path d="M10.7143 36.9054H6.4286C5.89285 36.9054 5.4585 36.5 5.4585 36C5.4585 35.4999 5.89285 35.0945 6.4286 35.0945H10.7143C11.25 35.0945 11.6844 35.4999 11.6844 36C11.6844 36.5 11.25 36.9054 10.7143 36.9054Z" fill="#596C76"/>
<path d="M32.1431 36.9054H27.8573C27.3216 36.9054 26.8872 36.5 26.8872 36C26.8872 35.4999 27.3216 35.0945 27.8573 35.0945H32.1431C32.6789 35.0945 33.1132 35.4999 33.1132 36C33.1132 36.5 32.6789 36.9054 32.1431 36.9054Z" fill="#596C76"/>
<path d="M42.8573 26.9055H38.5717C38.0359 26.9055 37.6016 26.5001 37.6016 26C37.6016 25.5 38.0359 25.0946 38.5717 25.0946H42.8573C43.3931 25.0946 43.8275 25.5 43.8275 26C43.8275 26.5001 43.3931 26.9055 42.8573 26.9055Z" fill="#596C76"/>
<path d="M53.5712 26.9055H49.2855C48.7498 26.9055 48.3154 26.5001 48.3154 26C48.3154 25.5 48.7498 25.0946 49.2855 25.0946H53.5712C54.107 25.0946 54.5413 25.5 54.5413 26C54.5413 26.5001 54.107 26.9055 53.5712 26.9055Z" fill="#596C76"/>
<path d="M42.8573 36.9054H38.5717C38.0359 36.9054 37.6016 36.5 37.6016 36C37.6016 35.4999 38.0359 35.0945 38.5717 35.0945H42.8573C43.3931 35.0945 43.8275 35.4999 43.8275 36C43.8275 36.5 43.3931 36.9054 42.8573 36.9054Z" fill="#596C76"/>
<path d="M53.5712 36.9054H49.2855C48.7498 36.9054 48.3154 36.5 48.3154 36C48.3154 35.4999 48.7498 35.0945 49.2855 35.0945H53.5712C54.107 35.0945 54.5413 35.4999 54.5413 36C54.5413 36.5 54.107 36.9054 53.5712 36.9054Z" fill="#596C76"/>
<path d="M42.8573 46.9054H38.5717C38.0359 46.9054 37.6016 46.5 37.6016 46C37.6016 45.4999 38.0359 45.0945 38.5717 45.0945H42.8573C43.3931 45.0945 43.8275 45.4999 43.8275 46C43.8275 46.5 43.3931 46.9054 42.8573 46.9054Z" fill="#596C76"/>
<path d="M32.1431 46.9054H27.8573C27.3216 46.9054 26.8872 46.5 26.8872 46C26.8872 45.4999 27.3216 45.0945 27.8573 45.0945H32.1431C32.6789 45.0945 33.1132 45.4999 33.1132 46C33.1132 46.5 32.6789 46.9054 32.1431 46.9054Z" fill="#596C76"/>
<path d="M21.4286 46.9054H17.143C16.6072 46.9054 16.1729 46.5 16.1729 46C16.1729 45.4999 16.6072 45.0945 17.143 45.0945H21.4286C21.9644 45.0945 22.3987 45.4999 22.3987 46C22.3987 46.5 21.9645 46.9054 21.4286 46.9054Z" fill="#596C76"/>
<path d="M10.7143 46.9054H6.4286C5.89285 46.9054 5.4585 46.5 5.4585 46C5.4585 45.4999 5.89285 45.0945 6.4286 45.0945H10.7143C11.25 45.0945 11.6844 45.4999 11.6844 46C11.6844 46.5 11.25 46.9054 10.7143 46.9054Z" fill="#596C76"/>
</svg>
