<svg width="30" height="30" viewBox="0 0 30 30" fill="none" xmlns="http://www.w3.org/2000/svg">
<path d="M9.96948 3.604C9.76774 3.604 9.57637 3.48552 9.4931 3.28792C9.38189 3.02464 9.505 2.72098 9.76773 2.60976C10.7593 2.19026 11.8021 1.89123 12.8666 1.72211C13.1495 1.67606 13.4138 1.86955 13.4588 2.15147C13.5038 2.43338 13.3114 2.69877 13.0295 2.74378C12.0472 2.90053 11.0857 3.17571 10.1712 3.56263C10.105 3.59053 10.0367 3.604 9.96948 3.604Z" fill="white"/>
<path d="M4.75896 7.62451C4.6488 7.62451 4.53759 7.58936 4.44343 7.51694C4.21737 7.34263 4.17547 7.01781 4.34979 6.79183C5.0548 5.87793 5.87518 5.05761 6.78808 4.35265C7.01414 4.17782 7.33893 4.21971 7.51378 4.44575C7.68862 4.67179 7.64673 4.99656 7.42067 5.17139C6.57755 5.82257 5.81981 6.58026 5.16859 7.42384C5.0667 7.55526 4.91359 7.62451 4.75896 7.62451Z" fill="white"/>
<path d="M2.23395 13.4648C2.20705 13.4648 2.17963 13.4628 2.15168 13.4581C1.86978 13.4131 1.67735 13.1477 1.72235 12.8658C1.89198 11.8013 2.191 10.7585 2.60995 9.76747C2.72117 9.50473 3.02481 9.3811 3.28808 9.49284C3.55135 9.60405 3.67446 9.90769 3.56324 10.171C3.17634 11.0855 2.90117 12.0471 2.74443 13.0293C2.70359 13.2833 2.48374 13.4648 2.23395 13.4648Z" fill="white"/>
<path d="M27.7672 13.4644C27.5173 13.4644 27.2976 13.2828 27.2572 13.0288C27.1005 12.0466 26.8248 11.0846 26.4384 10.1707C26.3272 9.90744 26.4503 9.60382 26.7136 9.49261C26.9763 9.38141 27.2799 9.50451 27.3917 9.76723C27.8106 10.7587 28.1096 11.8009 28.2792 12.8654C28.3242 13.1473 28.1318 13.4126 27.8499 13.4576C27.8215 13.4622 27.7941 13.4644 27.7672 13.4644Z" fill="white"/>
<path d="M25.2395 7.62012C25.0848 7.62012 24.9317 7.5508 24.8298 7.41891C24.1786 6.57532 23.4203 5.81814 22.5772 5.16748C22.3512 4.99317 22.3093 4.66834 22.4836 4.44183C22.6579 4.21532 22.9828 4.17336 23.2093 4.3482C24.1228 5.05264 24.9436 5.87351 25.6486 6.78636C25.823 7.01241 25.7816 7.33718 25.5555 7.51202C25.4614 7.58543 25.3502 7.62012 25.2395 7.62012Z" fill="white"/>
<path d="M20.0315 3.60352C19.9642 3.60352 19.896 3.59004 19.8303 3.56215C18.9158 3.17525 17.9537 2.89956 16.972 2.74335C16.6901 2.69835 16.4977 2.4335 16.5427 2.15108C16.5877 1.86865 16.852 1.67523 17.1349 1.72175C18.1994 1.89138 19.2417 2.18986 20.2338 2.60934C20.497 2.72056 20.6201 3.02419 20.5084 3.28746C20.4246 3.48504 20.2332 3.60352 20.0315 3.60352Z" fill="white"/>
<path d="M17.0527 28.2842C16.8028 28.2842 16.583 28.1027 16.5427 27.8482C16.4977 27.5663 16.6901 27.3009 16.972 27.2559C17.9543 27.0992 18.9158 26.8241 19.8303 26.4372C20.0935 26.3265 20.3967 26.4491 20.5084 26.7118C20.6196 26.9751 20.4965 27.2787 20.2338 27.3899C19.2422 27.8093 18.1994 28.1083 17.1349 28.2774C17.107 28.2821 17.0796 28.2842 17.0527 28.2842Z" fill="white"/>
<path d="M22.8975 25.7554C22.7429 25.7554 22.5898 25.6861 22.4879 25.5542C22.3131 25.3281 22.355 25.0034 22.581 24.8285C23.4241 24.1774 24.1819 23.4197 24.8331 22.5761C25.008 22.3496 25.3323 22.3076 25.5588 22.4825C25.7849 22.6568 25.8268 22.9816 25.6524 23.2076C24.9474 24.1215 24.127 24.9418 23.2141 25.6467C23.1194 25.7207 23.0082 25.7554 22.8975 25.7554Z" fill="white"/>
<path d="M26.9138 20.5483C26.8465 20.5483 26.7783 20.5349 26.7126 20.507C26.4493 20.3958 26.3262 20.0921 26.4374 19.8288C26.8243 18.9144 27.0995 17.9527 27.2562 16.9705C27.3012 16.6891 27.566 16.4962 27.8485 16.5412C28.1304 16.5862 28.3228 16.8516 28.2778 17.1335C28.1081 18.198 27.8091 19.2408 27.3902 20.2318C27.3069 20.4299 27.1155 20.5483 26.9138 20.5483Z" fill="white"/>
<path d="M3.08685 20.5483C2.88511 20.5483 2.69373 20.4299 2.60994 20.2323C2.19099 19.2407 1.89198 18.1985 1.72235 17.134C1.67735 16.8521 1.86977 16.5867 2.15167 16.5417C2.4341 16.4967 2.69895 16.6891 2.74395 16.971C2.90069 17.9533 3.17638 18.9154 3.56276 19.8293C3.67397 20.0926 3.55086 20.3962 3.28759 20.5074C3.22238 20.5349 3.15411 20.5483 3.08685 20.5483Z" fill="white"/>
<path d="M7.10772 25.7583C6.99756 25.7583 6.88635 25.7231 6.79219 25.6507C5.87873 24.9463 5.05791 24.1255 4.35292 23.2126C4.1786 22.9866 4.21997 22.6618 4.44602 22.487C4.67254 22.3116 4.99685 22.3546 5.17169 22.5801C5.82289 23.4237 6.58114 24.1808 7.42423 24.8315C7.65028 25.0058 7.69218 25.3306 7.51787 25.5571C7.41597 25.6895 7.26287 25.7583 7.10772 25.7583Z" fill="white"/>
<path d="M12.9482 28.2842C12.9213 28.2842 12.8938 28.2821 12.8659 28.2774C11.8014 28.1078 10.7591 27.8094 9.76706 27.3899C9.50379 27.2787 9.38068 26.9751 9.49242 26.7118C9.60364 26.4491 9.90727 26.3265 10.1705 26.4372C11.085 26.8241 12.0471 27.0998 13.0288 27.256C13.3107 27.301 13.5032 27.5658 13.4582 27.8482C13.4178 28.1031 13.198 28.2842 12.9482 28.2842Z" fill="white"/>
<path d="M14.9998 22.7583C19.2848 22.7583 22.7584 19.2847 22.7584 14.9998C22.7584 10.7148 19.2848 7.24121 14.9998 7.24121C10.7149 7.24121 7.24121 10.7148 7.24121 14.9998C7.24121 19.2847 10.7149 22.7583 14.9998 22.7583Z" fill="#1D1D1B"/>
<path d="M22.7582 15.5171H7.2409C6.95537 15.5171 6.72363 15.2853 6.72363 14.9998C6.72363 14.7142 6.95537 14.4824 7.2409 14.4824H22.7582C23.0437 14.4824 23.2754 14.7142 23.2754 14.9998C23.2754 15.2853 23.0437 15.5171 22.7582 15.5171Z" fill="white"/>
<path d="M14.9995 23.2715C12.8803 23.2715 10.7607 22.4646 9.14744 20.8513C5.92091 17.6248 5.92091 12.3743 9.14744 9.14774C12.3745 5.92122 17.625 5.92169 20.8511 9.14774C24.0776 12.3743 24.0776 17.6248 20.8511 20.8513C19.2383 22.4651 17.1187 23.2715 14.9995 23.2715ZM14.9995 7.76206C13.1452 7.76206 11.2909 8.46758 9.87881 9.87963C7.05569 12.7027 7.05569 17.2969 9.87881 20.1204C12.7019 22.9435 17.2961 22.9435 20.1197 20.1204C22.9428 17.2973 22.9428 12.7032 20.1197 9.87963C18.7081 8.46752 16.8538 7.76206 14.9995 7.76206Z" fill="white"/>
<path d="M14.9996 23.2715C12.8804 23.2715 10.7608 22.4646 9.14757 20.8514C9.00893 20.7128 8.87862 20.5701 8.75188 20.4242C8.63862 20.2943 8.59773 20.1159 8.64325 19.9499C8.68825 19.7834 8.81341 19.6504 8.97688 19.595C10.0538 19.2314 12.2681 18.6206 14.9996 18.6206C17.7311 18.6206 19.9454 19.2314 21.0223 19.595C21.1858 19.6499 21.3109 19.7833 21.3559 19.9499C21.4009 20.1164 21.3606 20.2943 21.2473 20.4242C21.1206 20.57 20.9902 20.7133 20.8516 20.8514C19.2384 22.4651 17.1187 23.2715 14.9996 23.2715ZM10.0992 20.3316C12.8618 22.8738 17.1368 22.8738 19.8999 20.3316C18.7604 20.012 17.0323 19.6551 14.9995 19.6551C12.9667 19.6551 11.2388 20.0119 10.0992 20.3316Z" fill="white"/>
<path d="M14.9994 11.3794C12.2679 11.3794 10.0536 10.7685 8.97666 10.4049C8.81318 10.3501 8.68803 10.2166 8.64303 10.0501C8.59803 9.88353 8.6384 9.70557 8.75166 9.57573C8.8784 9.42989 9.00871 9.28656 9.14734 9.14845C12.3739 5.92187 17.6244 5.92187 20.851 9.14845C20.9896 9.28709 21.12 9.42983 21.2467 9.57573C21.36 9.70557 21.4009 9.884 21.3553 10.0501C21.3103 10.2166 21.1852 10.3495 21.0217 10.4049C19.9453 10.7685 17.7309 11.3794 14.9994 11.3794ZM10.099 9.66831C11.2385 9.98794 12.9666 10.3448 14.9994 10.3448C17.0322 10.3448 18.7603 9.98794 19.8998 9.66831C17.1372 7.12605 12.8617 7.12605 10.099 9.66831Z" fill="white"/>
<path d="M14.9997 23.2754C14.9139 23.2754 14.828 23.2542 14.7498 23.2112C14.5848 23.1202 14.4824 22.9464 14.4824 22.7581V7.24325C14.4824 7.05499 14.5848 6.88121 14.7498 6.79015C14.9148 6.69863 15.1161 6.70478 15.2759 6.80621C15.8232 7.15173 16.3275 7.56657 16.9114 8.15051C18.7725 10.0115 19.7971 12.4441 19.7971 14.9997C19.7971 17.5559 18.7725 19.9884 16.9114 21.8489C16.3233 22.437 15.819 22.8524 15.2754 23.1958C15.1916 23.2485 15.0959 23.2754 14.9997 23.2754ZM15.517 8.26628V21.734C15.728 21.5546 15.9463 21.3518 16.1801 21.118C17.8456 19.4525 18.7632 17.2801 18.7632 15.0001C18.7632 12.7207 17.8461 10.5478 16.1806 8.88227C15.9473 8.64855 15.729 8.44628 15.517 8.26628Z" fill="white"/>
<path d="M14.9991 23.2744C14.9029 23.2744 14.8072 23.2475 14.7229 23.1943C14.1746 22.8482 13.6703 22.4334 13.0869 21.8499C11.2258 19.9888 10.2012 17.5568 10.2012 15.0005C10.2012 12.4448 11.2258 10.0117 13.0869 8.15111C13.6708 7.56715 14.1751 7.15283 14.7224 6.80677C14.8817 6.70593 15.0834 6.69972 15.2484 6.79072C15.414 6.88177 15.5164 7.05556 15.5164 7.24383V22.7567C15.5164 22.9449 15.414 23.1187 15.249 23.2098C15.1709 23.2532 15.085 23.2744 14.9991 23.2744ZM13.8187 8.88248C12.1532 10.548 11.2362 12.721 11.2362 15.0005C11.2362 17.2805 12.1532 19.453 13.8187 21.1185C14.052 21.3518 14.2698 21.5541 14.4818 21.7341V8.26695C14.2698 8.44695 14.0515 8.64922 13.8187 8.88248Z" fill="white"/>
<path d="M2.06893 17.0688C3.21156 17.0688 4.13786 16.1426 4.13786 15C4.13786 13.8574 3.21156 12.9312 2.06893 12.9312C0.92629 12.9312 0 13.8574 0 15C0 16.1426 0.92629 17.0688 2.06893 17.0688Z" fill="white"/>
<path d="M27.9312 17.0688C29.0739 17.0688 30.0002 16.1426 30.0002 15C30.0002 13.8574 29.0739 12.9312 27.9312 12.9312C26.7886 12.9312 25.8623 13.8574 25.8623 15C25.8623 16.1426 26.7886 17.0688 27.9312 17.0688Z" fill="white"/>
<path d="M14.9996 30C16.1423 30 17.0686 29.0737 17.0686 27.9312C17.0686 26.7886 16.1423 25.8623 14.9996 25.8623C13.857 25.8623 12.9307 26.7886 12.9307 27.9312C12.9307 29.0737 13.857 30 14.9996 30Z" fill="white"/>
<path d="M14.9996 4.1377C16.1423 4.1377 17.0686 3.21144 17.0686 2.06885C17.0686 0.926255 16.1423 0 14.9996 0C13.857 0 12.9307 0.926255 12.9307 2.06885C12.9307 3.21144 13.857 4.1377 14.9996 4.1377Z" fill="white"/>
</svg>
