<svg width="30" height="30" viewBox="0 0 30 30" fill="none" xmlns="http://www.w3.org/2000/svg">
<path d="M9.96948 3.604C9.76774 3.604 9.57637 3.48552 9.4931 3.28792C9.38189 3.02464 9.505 2.72098 9.76773 2.60976C10.7593 2.19026 11.8021 1.89123 12.8666 1.72211C13.1495 1.67606 13.4138 1.86955 13.4588 2.15147C13.5038 2.43338 13.3114 2.69877 13.0295 2.74378C12.0472 2.90053 11.0857 3.17571 10.1712 3.56263C10.105 3.59053 10.0367 3.604 9.96948 3.604Z" fill="#1D1D1B"/>
<path d="M4.75798 7.62451C4.64782 7.62451 4.53661 7.58936 4.44245 7.51694C4.21639 7.34263 4.1745 7.01781 4.34882 6.79183C5.05382 5.87793 5.87421 5.05761 6.78711 4.35265C7.01316 4.17782 7.33795 4.21971 7.5128 4.44575C7.68764 4.67179 7.64575 4.99656 7.41969 5.17139C6.57658 5.82257 5.81883 6.58026 5.16762 7.42384C5.06572 7.55526 4.91261 7.62451 4.75798 7.62451Z" fill="#1D1D1B"/>
<path d="M2.23346 13.4648C2.20656 13.4648 2.17914 13.4628 2.15119 13.4581C1.86929 13.4131 1.67686 13.1477 1.72186 12.8658C1.89149 11.8013 2.19051 10.7585 2.60947 9.76747C2.72068 9.50473 3.02432 9.3811 3.28759 9.49284C3.55086 9.60405 3.67397 9.90769 3.56276 10.171C3.17585 11.0855 2.90069 12.0471 2.74394 13.0293C2.7031 13.2833 2.48325 13.4648 2.23346 13.4648Z" fill="#1D1D1B"/>
<path d="M27.7667 13.4644C27.5169 13.4644 27.2971 13.2828 27.2567 13.0288C27.1 12.0466 26.8243 11.0846 26.4379 10.1707C26.3267 9.90744 26.4498 9.60382 26.7131 9.49261C26.9758 9.38141 27.2794 9.50451 27.3912 9.76723C27.8101 10.7587 28.1091 11.8009 28.2788 12.8654C28.3238 13.1473 28.1313 13.4126 27.8494 13.4576C27.821 13.4622 27.7937 13.4644 27.7667 13.4644Z" fill="#1D1D1B"/>
<path d="M25.239 7.62012C25.0844 7.62012 24.9312 7.5508 24.8294 7.41891C24.1781 6.57532 23.4199 5.81814 22.5767 5.16748C22.3507 4.99317 22.3088 4.66834 22.4831 4.44183C22.6574 4.21532 22.9823 4.17336 23.2088 4.3482C24.1223 5.05264 24.9431 5.87351 25.6482 6.78636C25.8225 7.01241 25.7811 7.33718 25.555 7.51202C25.4609 7.58543 25.3497 7.62012 25.239 7.62012Z" fill="#1D1D1B"/>
<path d="M20.0305 3.60352C19.9633 3.60352 19.895 3.59004 19.8293 3.56215C18.9148 3.17525 17.9528 2.89956 16.971 2.74335C16.6891 2.69835 16.4967 2.4335 16.5417 2.15108C16.5867 1.86865 16.851 1.67523 17.134 1.72175C18.1984 1.89138 19.2407 2.18986 20.2328 2.60934C20.4961 2.72056 20.6192 3.02419 20.5074 3.28746C20.4236 3.48504 20.2323 3.60352 20.0305 3.60352Z" fill="#1D1D1B"/>
<path d="M17.0517 28.2842C16.8018 28.2842 16.5821 28.1027 16.5417 27.8482C16.4967 27.5663 16.6891 27.3009 16.971 27.2559C17.9533 27.0992 18.9148 26.8241 19.8293 26.4372C20.0926 26.3265 20.3957 26.4491 20.5074 26.7118C20.6186 26.9751 20.4955 27.2787 20.2328 27.3899C19.2413 27.8093 18.1984 28.1083 17.134 28.2774C17.106 28.2821 17.0786 28.2842 17.0517 28.2842Z" fill="#1D1D1B"/>
<path d="M22.8971 25.7554C22.7424 25.7554 22.5893 25.6861 22.4874 25.5542C22.3126 25.3281 22.3545 25.0034 22.5805 24.8285C23.4237 24.1774 24.1814 23.4197 24.8326 22.5761C25.0075 22.3496 25.3318 22.3076 25.5583 22.4825C25.7844 22.6568 25.8263 22.9816 25.652 23.2076C24.9469 24.1215 24.1266 24.9418 23.2136 25.6467C23.119 25.7207 23.0077 25.7554 22.8971 25.7554Z" fill="#1D1D1B"/>
<path d="M26.9138 20.5483C26.8465 20.5483 26.7783 20.5349 26.7126 20.507C26.4493 20.3958 26.3262 20.0921 26.4374 19.8288C26.8243 18.9144 27.0995 17.9527 27.2562 16.9705C27.3012 16.6891 27.566 16.4962 27.8485 16.5412C28.1304 16.5862 28.3228 16.8516 28.2778 17.1335C28.1081 18.198 27.8091 19.2408 27.3902 20.2318C27.3069 20.4299 27.1155 20.5483 26.9138 20.5483Z" fill="#1D1D1B"/>
<path d="M3.08636 20.5484C2.88462 20.5484 2.69325 20.4299 2.60946 20.2323C2.1905 19.2408 1.89149 18.1985 1.72186 17.134C1.67686 16.8521 1.86929 16.5867 2.15119 16.5417C2.43361 16.4967 2.69846 16.6892 2.74346 16.9711C2.9002 17.9534 3.17589 18.9154 3.56227 19.8294C3.67348 20.0927 3.55037 20.3963 3.28711 20.5075C3.22189 20.5349 3.15363 20.5484 3.08636 20.5484Z" fill="#1D1D1B"/>
<path d="M7.10723 25.7583C6.99707 25.7583 6.88586 25.7231 6.79171 25.6507C5.87824 24.9463 5.05742 24.1255 4.35243 23.2126C4.17812 22.9866 4.21948 22.6618 4.44553 22.487C4.67205 22.3116 4.99636 22.3546 5.1712 22.5801C5.82241 23.4237 6.58065 24.1808 7.42375 24.8315C7.6498 25.0058 7.69169 25.3306 7.51738 25.5571C7.41548 25.6895 7.26238 25.7583 7.10723 25.7583Z" fill="#1D1D1B"/>
<path d="M12.9482 28.2842C12.9213 28.2842 12.8938 28.2821 12.8659 28.2774C11.8014 28.1078 10.7591 27.8094 9.76706 27.3899C9.50379 27.2787 9.38068 26.9751 9.49242 26.7118C9.60364 26.4491 9.90727 26.3265 10.1705 26.4372C11.085 26.8241 12.0471 27.0998 13.0288 27.256C13.3107 27.301 13.5032 27.5658 13.4582 27.8482C13.4178 28.1031 13.198 28.2842 12.9482 28.2842Z" fill="#1D1D1B"/>
<path d="M14.9998 22.7583C19.2848 22.7583 22.7584 19.2847 22.7584 14.9998C22.7584 10.7148 19.2848 7.24121 14.9998 7.24121C10.7149 7.24121 7.24121 10.7148 7.24121 14.9998C7.24121 19.2847 10.7149 22.7583 14.9998 22.7583Z" fill="#00AEEF"/>
<path d="M22.7586 15.5172H7.24139C6.95586 15.5172 6.72412 15.2854 6.72412 14.9998C6.72412 14.7143 6.95586 14.4825 7.24139 14.4825H22.7586C23.0442 14.4825 23.2759 14.7143 23.2759 14.9998C23.2759 15.2854 23.0442 15.5172 22.7586 15.5172Z" fill="#0072BC"/>
<path d="M15.0005 23.2714C12.8813 23.2714 10.7617 22.4645 9.14841 20.8513C5.92188 17.6248 5.92188 12.3742 9.14841 9.14768C12.3755 5.92116 17.626 5.92163 20.8521 9.14768C24.0786 12.3742 24.0786 17.6247 20.8521 20.8513C19.2393 22.4651 17.1196 23.2714 15.0005 23.2714ZM15.0005 7.762C13.1462 7.762 11.2918 8.46752 9.87978 9.87957C7.05667 12.7027 7.05667 17.2968 9.87978 20.1204C12.7029 22.9435 17.2971 22.9435 20.1206 20.1204C22.9438 17.2973 22.9438 12.7031 20.1206 9.87957C18.7091 8.46746 16.8548 7.762 15.0005 7.762Z" fill="#0072BC"/>
<path d="M15.0001 23.2715C12.8809 23.2715 10.7613 22.4646 9.14805 20.8514C9.00942 20.7128 8.87911 20.5701 8.75237 20.4242C8.63911 20.2943 8.59821 20.1159 8.64374 19.9499C8.68874 19.7834 8.8139 19.6504 8.97737 19.595C10.0543 19.2314 12.2686 18.6206 15.0001 18.6206C17.7316 18.6206 19.9459 19.2314 21.0228 19.595C21.1863 19.6499 21.3114 19.7833 21.3564 19.9499C21.4014 20.1164 21.361 20.2943 21.2478 20.4242C21.121 20.57 20.9907 20.7133 20.8521 20.8514C19.2388 22.4651 17.1192 23.2715 15.0001 23.2715ZM10.0997 20.3316C12.8623 22.8738 17.1373 22.8738 19.9004 20.3316C18.7609 20.012 17.0328 19.6551 15 19.6551C12.9672 19.6551 11.2393 20.0119 10.0997 20.3316Z" fill="#0072BC"/>
<path d="M15.0004 11.3794C12.2689 11.3794 10.0545 10.7685 8.97764 10.4049C8.81416 10.3501 8.689 10.2166 8.644 10.0501C8.599 9.88353 8.63937 9.70557 8.75263 9.57573C8.87937 9.42989 9.00969 9.28656 9.14832 9.14845C12.3749 5.92187 17.6254 5.92187 20.852 9.14845C20.9906 9.28709 21.1209 9.42983 21.2477 9.57573C21.3609 9.70557 21.4018 9.884 21.3563 10.0501C21.3113 10.2166 21.1862 10.3495 21.0227 10.4049C19.9462 10.7685 17.7319 11.3794 15.0004 11.3794ZM10.1 9.66831C11.2395 9.98794 12.9676 10.3448 15.0004 10.3448C17.0332 10.3448 18.7612 9.98794 19.9008 9.66831C17.1381 7.12605 12.8626 7.12605 10.1 9.66831Z" fill="#0072BC"/>
<path d="M15.0002 23.2754C14.9143 23.2754 14.8284 23.2542 14.7503 23.2112C14.5853 23.1202 14.4829 22.9464 14.4829 22.7581V7.24325C14.4829 7.05499 14.5853 6.88121 14.7503 6.79015C14.9153 6.69863 15.1165 6.70478 15.2764 6.80621C15.8237 7.15173 16.328 7.56657 16.9119 8.15051C18.773 10.0115 19.7976 12.4441 19.7976 14.9997C19.7976 17.5559 18.773 19.9884 16.9119 21.8489C16.3238 22.437 15.8195 22.8524 15.2759 23.1958C15.1921 23.2485 15.0964 23.2754 15.0002 23.2754ZM15.5174 8.26628V21.734C15.7285 21.5546 15.9468 21.3518 16.1806 21.118C17.8461 19.4525 18.7637 17.2801 18.7637 15.0001C18.7637 12.7207 17.8466 10.5478 16.1811 8.88227C15.9478 8.64855 15.7295 8.44628 15.5174 8.26628Z" fill="#0072BC"/>
<path d="M15.0001 23.2744C14.9039 23.2744 14.8082 23.2475 14.7239 23.1943C14.1756 22.8482 13.6713 22.4334 13.0878 21.8499C11.2268 19.9888 10.2021 17.5568 10.2021 15.0005C10.2021 12.4448 11.2268 10.0117 13.0878 8.15111C13.6718 7.56715 14.1761 7.15283 14.7234 6.80677C14.8827 6.70593 15.0844 6.69972 15.2494 6.79072C15.4149 6.88177 15.5174 7.05556 15.5174 7.24383V22.7567C15.5174 22.9449 15.4149 23.1187 15.2499 23.2098C15.1718 23.2532 15.0859 23.2744 15.0001 23.2744ZM13.8197 8.88248C12.1542 10.548 11.2371 12.721 11.2371 15.0005C11.2371 17.2805 12.1542 19.453 13.8197 21.1185C14.053 21.3518 14.2708 21.5541 14.4828 21.7341V8.26695C14.2708 8.44695 14.0525 8.64922 13.8197 8.88248Z" fill="#0072BC"/>
<path d="M2.06893 17.0687C3.21156 17.0687 4.13786 16.1425 4.13786 14.9999C4.13786 13.8573 3.21156 12.931 2.06893 12.931C0.92629 12.931 0 13.8573 0 14.9999C0 16.1425 0.92629 17.0687 2.06893 17.0687Z" fill="#1D1D1B"/>
<path d="M27.9312 17.0688C29.0739 17.0688 30.0002 16.1426 30.0002 15C30.0002 13.8574 29.0739 12.9312 27.9312 12.9312C26.7886 12.9312 25.8623 13.8574 25.8623 15C25.8623 16.1426 26.7886 17.0688 27.9312 17.0688Z" fill="#1D1D1B"/>
<path d="M15.0001 30C16.1428 30 17.0691 29.0737 17.0691 27.9312C17.0691 26.7886 16.1428 25.8623 15.0001 25.8623C13.8575 25.8623 12.9312 26.7886 12.9312 27.9312C12.9312 29.0737 13.8575 30 15.0001 30Z" fill="#1D1D1B"/>
<path d="M15.0001 4.1377C16.1428 4.1377 17.0691 3.21144 17.0691 2.06885C17.0691 0.926255 16.1428 0 15.0001 0C13.8575 0 12.9312 0.926255 12.9312 2.06885C12.9312 3.21144 13.8575 4.1377 15.0001 4.1377Z" fill="#1D1D1B"/>
</svg>
