<svg width="30" height="30" viewBox="0 0 30 30" fill="none" xmlns="http://www.w3.org/2000/svg">
<path d="M9.96922 3.60379C9.76749 3.60379 9.57612 3.48531 9.49286 3.28774C9.38165 3.02447 9.50475 2.72084 9.76749 2.60963C10.759 2.19016 11.8018 1.89115 12.8663 1.72205C13.1492 1.676 13.4135 1.86947 13.4585 2.15137C13.5035 2.43326 13.3111 2.69863 13.0292 2.74363C12.047 2.90037 11.0854 3.17553 10.171 3.56242C10.1048 3.59031 10.0364 3.60379 9.96922 3.60379Z" fill="white"/>
<path d="M4.75825 7.62457C4.64808 7.62457 4.53687 7.58942 4.4427 7.517C4.21664 7.34268 4.17474 7.01784 4.34906 6.79184C5.0541 5.8779 5.87451 5.05753 6.78745 4.35253C7.01351 4.17769 7.33832 4.21958 7.51317 4.44564C7.68802 4.67169 7.64612 4.99648 7.42006 5.17132C6.57691 5.82253 5.81914 6.58026 5.16789 7.42389C5.066 7.55532 4.91288 7.62457 4.75825 7.62457Z" fill="white"/>
<path d="M2.23346 13.4648C2.20656 13.4648 2.17914 13.4628 2.15119 13.4581C1.86929 13.4131 1.67686 13.1477 1.72186 12.8658C1.8915 11.8014 2.19051 10.7586 2.60947 9.76759C2.72068 9.50485 3.02433 9.38122 3.2876 9.49296C3.55087 9.60417 3.67397 9.9078 3.56276 10.1711C3.17585 11.0855 2.90069 12.0471 2.74395 13.0293C2.7031 13.2833 2.48325 13.4648 2.23346 13.4648Z" fill="white"/>
<path d="M27.7665 13.4649C27.5167 13.4649 27.2969 13.2834 27.2565 13.0293C27.0997 12.0471 26.8241 11.085 26.4377 10.1711C26.3265 9.90782 26.4496 9.60419 26.7128 9.49298C26.9756 9.38177 27.2792 9.50487 27.391 9.76761C27.8099 10.7591 28.1089 11.8014 28.2786 12.8659C28.3236 13.1478 28.1311 13.4131 27.8492 13.4581C27.8208 13.4628 27.7935 13.4649 27.7665 13.4649Z" fill="white"/>
<path d="M25.2389 7.62051C25.0843 7.62051 24.9312 7.5512 24.8293 7.4193C24.1781 6.57567 23.4198 5.81846 22.5767 5.16777C22.3507 4.99345 22.3088 4.66861 22.4831 4.44208C22.6574 4.21556 22.9822 4.17361 23.2088 4.34845C24.1222 5.05293 24.9431 5.87383 25.648 6.78672C25.8224 7.01278 25.781 7.33756 25.5549 7.51241C25.4608 7.58583 25.3496 7.62051 25.2389 7.62051Z" fill="white"/>
<path d="M20.031 3.60361C19.9638 3.60361 19.8955 3.59013 19.8298 3.56224C18.9153 3.17535 17.9533 2.89966 16.9715 2.74345C16.6896 2.69845 16.4972 2.43361 16.5422 2.15119C16.5872 1.86877 16.8515 1.67535 17.1344 1.72188C18.1989 1.8915 19.2412 2.18998 20.2333 2.60945C20.4966 2.72066 20.6197 3.02429 20.5079 3.28755C20.4241 3.48513 20.2328 3.60361 20.031 3.60361Z" fill="white"/>
<path d="M17.0522 28.2843C16.8023 28.2843 16.5825 28.1028 16.5422 27.8483C16.4972 27.5664 16.6896 27.301 16.9715 27.256C17.9537 27.0993 18.9152 26.8241 19.8296 26.4372C20.0929 26.3265 20.396 26.4491 20.5077 26.7118C20.6189 26.9751 20.4958 27.2787 20.2331 27.3899C19.2416 27.8094 18.1989 28.1084 17.1344 28.2775C17.1065 28.2823 17.0791 28.2843 17.0522 28.2843Z" fill="white"/>
<path d="M22.8968 25.7555C22.7422 25.7555 22.5891 25.6862 22.4872 25.5543C22.3123 25.3283 22.3542 25.0035 22.5803 24.8286C23.4234 24.1774 24.1811 23.4197 24.8323 22.5761C25.0071 22.3495 25.3314 22.3076 25.5579 22.4824C25.784 22.6567 25.8259 22.9816 25.6515 23.2076C24.9466 24.1215 24.1262 24.9419 23.2134 25.6469C23.1187 25.7208 23.0075 25.7555 22.8968 25.7555Z" fill="white"/>
<path d="M26.9136 20.5485C26.8463 20.5485 26.7781 20.535 26.7124 20.5071C26.4491 20.3959 26.326 20.0923 26.4372 19.829C26.8241 18.9145 27.0993 17.953 27.256 16.9707C27.3011 16.6894 27.5659 16.4964 27.8484 16.5414C28.1303 16.5864 28.3227 16.8518 28.2777 17.1337C28.1081 18.1982 27.809 19.241 27.3901 20.232C27.3067 20.43 27.1154 20.5485 26.9136 20.5485Z" fill="white"/>
<path d="M3.08636 20.5484C2.88462 20.5484 2.69325 20.43 2.60946 20.2324C2.1905 19.2409 1.89149 18.1986 1.72186 17.1341C1.67686 16.8522 1.86929 16.5869 2.15119 16.5419C2.43361 16.4969 2.69846 16.6893 2.74346 16.9712C2.90021 17.9534 3.1759 18.9155 3.56227 19.8294C3.67348 20.0927 3.55038 20.3963 3.28711 20.5075C3.22189 20.535 3.15363 20.5484 3.08636 20.5484Z" fill="white"/>
<path d="M7.10699 25.7587C6.99683 25.7587 6.88563 25.7235 6.79147 25.6511C5.878 24.9466 5.05718 24.1257 4.35219 23.2128C4.17787 22.9868 4.21924 22.662 4.44529 22.4871C4.67181 22.3117 4.99612 22.3547 5.17096 22.5802C5.82216 23.4239 6.58042 24.1811 7.42351 24.8318C7.64956 25.0061 7.69145 25.3309 7.51714 25.5575C7.41525 25.6899 7.26214 25.7587 7.10699 25.7587Z" fill="white"/>
<path d="M12.9482 28.2843C12.9213 28.2843 12.8938 28.2822 12.8659 28.2775C11.8014 28.1079 10.7591 27.8094 9.76706 27.39C9.50379 27.2788 9.38068 26.9751 9.49242 26.7119C9.60364 26.4491 9.90727 26.3265 10.1705 26.4372C11.085 26.8241 12.0471 27.0998 13.0289 27.256C13.3108 27.301 13.5032 27.5659 13.4582 27.8483C13.4178 28.1032 13.198 28.2843 12.9482 28.2843Z" fill="white"/>
<path d="M15.0001 22.7586C19.2851 22.7586 22.7588 19.2849 22.7588 15C22.7588 10.715 19.2851 7.24133 15.0001 7.24133C10.7151 7.24133 7.24146 10.715 7.24146 15C7.24146 19.2849 10.7151 22.7586 15.0001 22.7586Z" fill="#00AEEF"/>
<path d="M22.7587 15.5173H7.24139C6.95586 15.5173 6.72412 15.2855 6.72412 15C6.72412 14.7145 6.95586 14.4827 7.24139 14.4827H22.7587C23.0442 14.4827 23.2759 14.7145 23.2759 15C23.2759 15.2855 23.0442 15.5173 22.7587 15.5173Z" fill="#0072BC"/>
<path d="M15.0005 23.2717C12.8813 23.2717 10.7617 22.4648 9.14842 20.8516C5.92188 17.625 5.92188 12.3745 9.14842 9.14793C12.3755 5.9214 17.626 5.92187 20.8521 9.14793C24.0786 12.3745 24.0786 17.625 20.8521 20.8516C19.2393 22.4654 17.1197 23.2717 15.0005 23.2717ZM15.0005 7.76224C13.1462 7.76224 11.2918 8.46777 9.87979 9.87982C7.05667 12.7029 7.05667 17.2971 9.87979 20.1207C12.7029 22.9438 17.2971 22.9438 20.1207 20.1207C22.9438 17.2976 22.9438 12.7034 20.1207 9.87982C18.7091 8.46771 16.8548 7.76224 15.0005 7.76224Z" fill="#0072BC"/>
<path d="M14.9999 23.2718C12.8807 23.2718 10.7611 22.4649 9.14782 20.8516C9.00918 20.713 8.87887 20.5703 8.75213 20.4244C8.63887 20.2945 8.59797 20.1161 8.6435 19.95C8.6885 19.7835 8.81365 19.6506 8.97713 19.5952C10.054 19.2316 12.2684 18.6207 14.9999 18.6207C17.7315 18.6207 19.9458 19.2316 21.0227 19.5952C21.1862 19.65 21.3113 19.7835 21.3563 19.95C21.4013 20.1166 21.3609 20.2945 21.2477 20.4244C21.1209 20.5702 20.9906 20.7135 20.852 20.8516C19.2387 22.4654 17.1191 23.2718 14.9999 23.2718ZM10.0995 20.3318C12.8621 22.8741 17.1371 22.8741 19.9003 20.3318C18.7608 20.0122 17.0327 19.6553 14.9999 19.6553C12.967 19.6553 11.239 20.0121 10.0995 20.3318Z" fill="#0072BC"/>
<path d="M15.0002 11.3793C12.2687 11.3793 10.0543 10.7685 8.9774 10.4048C8.81392 10.35 8.68876 10.2166 8.64376 10.05C8.59876 9.88346 8.63913 9.70552 8.75239 9.57567C8.87913 9.42983 9.00945 9.28651 9.14808 9.14841C12.3747 5.92189 17.6253 5.92189 20.8519 9.14841C20.9905 9.28704 21.1208 9.42977 21.2476 9.57567C21.3608 9.70552 21.4017 9.88393 21.3562 10.05C21.3112 10.2165 21.1861 10.3495 21.0226 10.4048C19.9461 10.7685 17.7318 11.3793 15.0002 11.3793ZM10.0998 9.66825C11.2393 9.98788 12.9674 10.3448 15.0002 10.3448C17.033 10.3448 18.7611 9.98788 19.9007 9.66825C17.138 7.12605 12.8625 7.12605 10.0998 9.66825Z" fill="#0072BC"/>
<path d="M15.0002 23.2759C14.9143 23.2759 14.8284 23.2547 14.7503 23.2117C14.5853 23.1207 14.4829 22.9469 14.4829 22.7586V7.2435C14.4829 7.05524 14.5853 6.88145 14.7503 6.7904C14.9153 6.69887 15.1165 6.70503 15.2764 6.80645C15.8236 7.15198 16.328 7.56682 16.9119 8.15077C18.773 10.0118 19.7976 12.4444 19.7976 15.0001C19.7976 17.5563 18.773 19.9889 16.9119 21.8494C16.3238 22.4375 15.8195 22.8529 15.2759 23.1963C15.1921 23.249 15.0964 23.2759 15.0002 23.2759ZM15.5174 8.26655V21.7345C15.7285 21.555 15.9468 21.3522 16.1805 21.1185C17.8461 19.4529 18.7636 17.2805 18.7636 15.0005C18.7636 12.721 17.8466 10.5481 16.1811 8.88255C15.9477 8.64882 15.7295 8.44655 15.5174 8.26655Z" fill="#0072BC"/>
<path d="M15 23.2744C14.9038 23.2744 14.8082 23.2475 14.7238 23.1942C14.1756 22.8482 13.6713 22.4334 13.0878 21.8499C11.2268 19.9889 10.2021 17.5568 10.2021 15.0006C10.2021 12.4449 11.2268 10.0118 13.0878 8.15127C13.6717 7.56732 14.1761 7.15301 14.7233 6.80695C14.8826 6.70611 15.0844 6.6999 15.2494 6.7909C15.4149 6.88195 15.5173 7.05574 15.5173 7.244V22.7566C15.5173 22.9449 15.4149 23.1187 15.2499 23.2098C15.1718 23.2532 15.0859 23.2744 15 23.2744ZM13.8197 8.88264C12.1542 10.5482 11.2371 12.7211 11.2371 15.0006C11.2371 17.2806 12.1542 19.453 13.8197 21.1185C14.0529 21.3518 14.2707 21.5541 14.4828 21.7341V8.26711C14.2707 8.44711 14.0525 8.64938 13.8197 8.88264Z" fill="#0072BC"/>
<path d="M2.06899 17.0689C3.21167 17.0689 4.13799 16.1426 4.13799 15C4.13799 13.8573 3.21167 12.931 2.06899 12.931C0.92632 12.931 0 13.8573 0 15C0 16.1426 0.92632 17.0689 2.06899 17.0689Z" fill="white"/>
<path d="M27.9312 17.0689C29.0738 17.0689 30 16.1426 30 15C30 13.8573 29.0738 12.931 27.9312 12.931C26.7886 12.931 25.8623 13.8573 25.8623 15C25.8623 16.1426 26.7886 17.0689 27.9312 17.0689Z" fill="white"/>
<path d="M15 30C16.1427 30 17.069 29.0737 17.069 27.9311C17.069 26.7884 16.1427 25.8621 15 25.8621C13.8573 25.8621 12.9309 26.7884 12.9309 27.9311C12.9309 29.0737 13.8573 30 15 30Z" fill="white"/>
<path d="M15 4.13788C16.1427 4.13788 17.069 3.21158 17.069 2.06894C17.069 0.926296 16.1427 0 15 0C13.8573 0 12.9309 0.926296 12.9309 2.06894C12.9309 3.21158 13.8573 4.13788 15 4.13788Z" fill="white"/>
</svg>
