<svg width="30" height="30" viewBox="0 0 30 30" fill="none" xmlns="http://www.w3.org/2000/svg">
<path d="M9.96947 3.60379C9.76773 3.60379 9.57636 3.48531 9.4931 3.28774C9.38189 3.02447 9.505 2.72084 9.76773 2.60963C10.7593 2.19016 11.802 1.89115 12.8665 1.72205C13.1495 1.676 13.4138 1.86947 13.4588 2.15137C13.5038 2.43326 13.3114 2.69863 13.0295 2.74363C12.0472 2.90037 11.0857 3.17553 10.1712 3.56242C10.105 3.59031 10.0367 3.60379 9.96947 3.60379Z" fill="#1D1D1B"/>
<path d="M4.75898 7.62457C4.64882 7.62457 4.5376 7.58942 4.44343 7.517C4.21737 7.34268 4.17547 7.01784 4.3498 6.79184C5.05483 5.8779 5.87524 5.05753 6.78818 4.35253C7.01425 4.17769 7.33905 4.21958 7.5139 4.44564C7.68875 4.67169 7.64686 4.99648 7.42079 5.17132C6.57764 5.82253 5.81987 6.58026 5.16863 7.42389C5.06673 7.55532 4.91361 7.62457 4.75898 7.62457Z" fill="#1D1D1B"/>
<path d="M2.23395 13.4648C2.20705 13.4648 2.17963 13.4628 2.15168 13.4581C1.86978 13.4131 1.67735 13.1477 1.72235 12.8658C1.89198 11.8014 2.191 10.7586 2.60996 9.76759C2.72117 9.50485 3.02481 9.38122 3.28808 9.49296C3.55135 9.60417 3.67446 9.9078 3.56325 10.1711C3.17634 11.0855 2.90118 12.0471 2.74443 13.0293C2.70359 13.2833 2.48374 13.4648 2.23395 13.4648Z" fill="#1D1D1B"/>
<path d="M27.7672 13.4649C27.5174 13.4649 27.2976 13.2834 27.2572 13.0293C27.1005 12.0471 26.8248 11.085 26.4384 10.1711C26.3272 9.90782 26.4503 9.60419 26.7136 9.49298C26.9763 9.38177 27.28 9.50487 27.3917 9.76761C27.8107 10.7591 28.1097 11.8014 28.2793 12.8659C28.3243 13.1478 28.1319 13.4131 27.85 13.4581C27.8216 13.4628 27.7942 13.4649 27.7672 13.4649Z" fill="#1D1D1B"/>
<path d="M25.2394 7.62051C25.0848 7.62051 24.9316 7.5512 24.8298 7.4193C24.1786 6.57567 23.4203 5.81846 22.5772 5.16777C22.3512 4.99345 22.3093 4.66861 22.4836 4.44208C22.6579 4.21556 22.9827 4.17361 23.2093 4.34845C24.1227 5.05293 24.9435 5.87383 25.6485 6.78672C25.8228 7.01278 25.7815 7.33756 25.5554 7.51241C25.4613 7.58583 25.3501 7.62051 25.2394 7.62051Z" fill="#1D1D1B"/>
<path d="M20.0315 3.60361C19.9642 3.60361 19.896 3.59013 19.8303 3.56224C18.9158 3.17535 17.9537 2.89966 16.972 2.74345C16.6901 2.69845 16.4977 2.43361 16.5427 2.15119C16.5877 1.86877 16.852 1.67535 17.1349 1.72188C18.1994 1.8915 19.2417 2.18998 20.2338 2.60945C20.497 2.72066 20.6202 3.02429 20.5084 3.28755C20.4246 3.48513 20.2333 3.60361 20.0315 3.60361Z" fill="#1D1D1B"/>
<path d="M17.0526 28.2843C16.8028 28.2843 16.583 28.1028 16.5427 27.8483C16.4977 27.5664 16.6901 27.301 16.972 27.256C17.9542 27.0993 18.9157 26.8241 19.8301 26.4372C20.0934 26.3265 20.3965 26.4491 20.5082 26.7118C20.6194 26.9751 20.4963 27.2787 20.2336 27.3899C19.2421 27.8094 18.1993 28.1084 17.1349 28.2775C17.107 28.2823 17.0795 28.2843 17.0526 28.2843Z" fill="#1D1D1B"/>
<path d="M22.8975 25.7555C22.7429 25.7555 22.5898 25.6862 22.4879 25.5543C22.3131 25.3283 22.355 25.0035 22.581 24.8286C23.4241 24.1774 24.1818 23.4197 24.833 22.5761C25.0078 22.3495 25.3321 22.3076 25.5586 22.4824C25.7847 22.6567 25.8266 22.9816 25.6523 23.2076C24.9473 24.1215 24.127 24.9419 23.2141 25.6469C23.1194 25.7208 23.0082 25.7555 22.8975 25.7555Z" fill="#1D1D1B"/>
<path d="M26.9138 20.5485C26.8466 20.5485 26.7783 20.535 26.7126 20.5071C26.4493 20.3959 26.3262 20.0923 26.4374 19.829C26.8244 18.9145 27.0995 17.953 27.2563 16.9707C27.3013 16.6894 27.5662 16.4964 27.8486 16.5414C28.1305 16.5864 28.323 16.8518 28.278 17.1337C28.1083 18.1982 27.8093 19.241 27.3903 20.232C27.307 20.43 27.1156 20.5485 26.9138 20.5485Z" fill="#1D1D1B"/>
<path d="M3.08685 20.5484C2.88511 20.5484 2.69374 20.43 2.60995 20.2324C2.19099 19.2409 1.89198 18.1986 1.72235 17.1341C1.67735 16.8522 1.86977 16.5869 2.15167 16.5419C2.4341 16.4969 2.69895 16.6893 2.74395 16.9712C2.90069 17.9534 3.17638 18.9155 3.56276 19.8294C3.67397 20.0927 3.55086 20.3963 3.2876 20.5075C3.22238 20.535 3.15412 20.5484 3.08685 20.5484Z" fill="#1D1D1B"/>
<path d="M7.10772 25.7587C6.99757 25.7587 6.88636 25.7235 6.7922 25.6511C5.87874 24.9466 5.05791 24.1257 4.35292 23.2128C4.1786 22.9868 4.21997 22.662 4.44602 22.4871C4.67254 22.3117 4.99685 22.3547 5.1717 22.5802C5.8229 23.4239 6.58115 24.1811 7.42424 24.8318C7.65029 25.0061 7.69219 25.3309 7.51787 25.5575C7.41598 25.6899 7.26288 25.7587 7.10772 25.7587Z" fill="#1D1D1B"/>
<path d="M12.9491 28.2843C12.9222 28.2843 12.8948 28.2822 12.8669 28.2775C11.8024 28.1079 10.7601 27.8094 9.76803 27.39C9.50477 27.2788 9.38166 26.9751 9.4934 26.7119C9.60461 26.4491 9.90825 26.3265 10.1715 26.4372C11.086 26.8241 12.0481 27.0998 13.0298 27.256C13.3117 27.301 13.5042 27.5659 13.4592 27.8483C13.4188 28.1032 13.199 28.2843 12.9491 28.2843Z" fill="#1D1D1B"/>
<path d="M14.9999 22.7586C19.2849 22.7586 22.7586 19.2849 22.7586 15C22.7586 10.715 19.2849 7.24133 14.9999 7.24133C10.7149 7.24133 7.24121 10.715 7.24121 15C7.24121 19.2849 10.7149 22.7586 14.9999 22.7586Z" fill="#1D1D1B"/>
<path d="M22.7592 15.5173H7.24188C6.95635 15.5173 6.72461 15.2855 6.72461 15C6.72461 14.7145 6.95635 14.4827 7.24188 14.4827H22.7592C23.0447 14.4827 23.2764 14.7145 23.2764 15C23.2764 15.2855 23.0447 15.5173 22.7592 15.5173Z" fill="white"/>
<path d="M15.0005 23.2717C12.8813 23.2717 10.7617 22.4648 9.14842 20.8516C5.92188 17.625 5.92188 12.3745 9.14842 9.14793C12.3755 5.9214 17.626 5.92187 20.8521 9.14793C24.0786 12.3745 24.0786 17.625 20.8521 20.8516C19.2393 22.4654 17.1197 23.2717 15.0005 23.2717ZM15.0005 7.76224C13.1462 7.76224 11.2918 8.46777 9.87979 9.87982C7.05667 12.7029 7.05667 17.2971 9.87979 20.1207C12.7029 22.9438 17.2971 22.9438 20.1207 20.1207C22.9438 17.2976 22.9438 12.7034 20.1207 9.87982C18.7091 8.46771 16.8548 7.76224 15.0005 7.76224Z" fill="white"/>
<path d="M15.0006 23.2718C12.8815 23.2718 10.7618 22.4649 9.14855 20.8516C9.00992 20.713 8.8796 20.5703 8.75286 20.4244C8.6396 20.2945 8.5987 20.1161 8.64423 19.95C8.68923 19.7835 8.81439 19.6506 8.97786 19.5952C10.0548 19.2316 12.2691 18.6207 15.0006 18.6207C17.7322 18.6207 19.9465 19.2316 21.0234 19.5952C21.1869 19.65 21.3121 19.7835 21.3571 19.95C21.4021 20.1166 21.3617 20.2945 21.2484 20.4244C21.1217 20.5702 20.9914 20.7135 20.8527 20.8516C19.2395 22.4654 17.1198 23.2718 15.0006 23.2718ZM10.1002 20.3318C12.8628 22.8741 17.1379 22.8741 19.901 20.3318C18.7615 20.0122 17.0334 19.6553 15.0006 19.6553C12.9678 19.6553 11.2398 20.0121 10.1002 20.3318Z" fill="white"/>
<path d="M15.0005 11.3793C12.2689 11.3793 10.0546 10.7685 8.97764 10.4048C8.81416 10.35 8.689 10.2166 8.644 10.05C8.599 9.88346 8.63937 9.70552 8.75264 9.57567C8.87938 9.42983 9.00969 9.28651 9.14833 9.14841C12.3749 5.92189 17.6255 5.92189 20.8521 9.14841C20.9908 9.28704 21.1211 9.42977 21.2478 9.57567C21.3611 9.70552 21.402 9.88393 21.3565 10.05C21.3115 10.2165 21.1863 10.3495 21.0228 10.4048C19.9464 10.7685 17.732 11.3793 15.0005 11.3793ZM10.1 9.66825C11.2395 9.98788 12.9676 10.3448 15.0005 10.3448C17.0333 10.3448 18.7614 9.98788 19.9009 9.66825C17.1382 7.12605 12.8627 7.12605 10.1 9.66825Z" fill="white"/>
<path d="M15.0007 23.2759C14.9148 23.2759 14.8289 23.2547 14.7508 23.2117C14.5858 23.1207 14.4834 22.9469 14.4834 22.7586V7.2435C14.4834 7.05524 14.5858 6.88145 14.7508 6.7904C14.9158 6.69887 15.117 6.70503 15.2769 6.80645C15.8241 7.15198 16.3285 7.56682 16.9124 8.15077C18.7734 10.0118 19.7981 12.4444 19.7981 15.0001C19.7981 17.5563 18.7734 19.9889 16.9124 21.8494C16.3243 22.4375 15.82 22.8529 15.2763 23.1963C15.1926 23.249 15.0969 23.2759 15.0007 23.2759ZM15.5179 8.26655V21.7345C15.729 21.555 15.9472 21.3522 16.181 21.1185C17.8465 19.4529 18.7641 17.2805 18.7641 15.0005C18.7641 12.721 17.8471 10.5481 16.1816 8.88255C15.9482 8.64882 15.73 8.44655 15.5179 8.26655Z" fill="white"/>
<path d="M15 23.2744C14.9038 23.2744 14.8082 23.2475 14.7238 23.1942C14.1756 22.8482 13.6713 22.4334 13.0878 21.8499C11.2268 19.9889 10.2021 17.5568 10.2021 15.0006C10.2021 12.4449 11.2268 10.0118 13.0878 8.15127C13.6717 7.56732 14.1761 7.15301 14.7233 6.80695C14.8826 6.70611 15.0844 6.6999 15.2494 6.7909C15.4149 6.88195 15.5173 7.05574 15.5173 7.244V22.7566C15.5173 22.9449 15.4149 23.1187 15.2499 23.2098C15.1718 23.2532 15.0859 23.2744 15 23.2744ZM13.8197 8.88264C12.1542 10.5482 11.2371 12.7211 11.2371 15.0006C11.2371 17.2806 12.1542 19.453 13.8197 21.1185C14.0529 21.3518 14.2707 21.5541 14.4828 21.7341V8.26711C14.2707 8.44711 14.0525 8.64938 13.8197 8.88264Z" fill="white"/>
<path d="M2.06899 17.0689C3.21167 17.0689 4.13799 16.1426 4.13799 15C4.13799 13.8573 3.21167 12.931 2.06899 12.931C0.92632 12.931 0 13.8573 0 15C0 16.1426 0.92632 17.0689 2.06899 17.0689Z" fill="#1D1D1B"/>
<path d="M27.9312 17.0689C29.0738 17.0689 30 16.1426 30 15C30 13.8573 29.0738 12.931 27.9312 12.931C26.7886 12.931 25.8623 13.8573 25.8623 15C25.8623 16.1426 26.7886 17.0689 27.9312 17.0689Z" fill="#1D1D1B"/>
<path d="M14.9997 30C16.1424 30 17.0688 29.0737 17.0688 27.9311C17.0688 26.7884 16.1424 25.8621 14.9997 25.8621C13.857 25.8621 12.9307 26.7884 12.9307 27.9311C12.9307 29.0737 13.857 30 14.9997 30Z" fill="#1D1D1B"/>
<path d="M14.9997 4.13788C16.1424 4.13788 17.0688 3.21158 17.0688 2.06894C17.0688 0.926296 16.1424 0 14.9997 0C13.857 0 12.9307 0.926296 12.9307 2.06894C12.9307 3.21158 13.857 4.13788 14.9997 4.13788Z" fill="#1D1D1B"/>
</svg>
