<svg width="221" height="245" viewBox="0 0 221 245" fill="none" xmlns="http://www.w3.org/2000/svg">
<path d="M162.492 0C130.745 0 105.056 24.1438 104.011 55.2141C103.176 83.9096 132.207 121.708 149.543 141.498C152.676 145.061 157.479 147.238 162.492 147.238C167.505 147.238 172.099 145.061 175.441 141.498C192.777 121.511 222.017 83.9096 220.973 55.2141C219.928 24.1438 194.239 0 162.492 0ZM162.492 75.202C151.005 75.202 141.606 66.2965 141.606 55.412C141.606 44.5275 151.005 35.622 162.492 35.622C173.979 35.622 183.378 44.5275 183.378 55.412C183.378 66.2965 173.979 75.202 162.492 75.202Z" fill="#00AEEF" fill-opacity="0.08"/>
<path d="M0.416068 188.796C1.25151 191.171 3.75782 192.754 6.26413 192.754C6.89071 192.754 7.72615 192.556 8.35273 192.359L61.403 174.152L87.0927 241.042C87.9281 243.417 90.4344 245 92.9408 245C93.5673 245 94.4028 244.802 95.0294 244.604C98.3711 243.417 100.042 240.052 98.7888 237.084L71.0105 164.257L48.8714 106.668C47.6183 103.501 44.0677 101.918 40.9348 103.106C37.593 104.293 35.9222 107.657 37.1753 110.626L57.2258 162.674L4.17554 180.88C0.833787 182.266 -0.837089 185.63 0.416068 188.796Z" fill="#00AEEF" fill-opacity="0.08"/>
<path d="M91.895 108.646L78.1103 113.396L72.4711 98.5536C71.2179 95.3872 67.6673 93.804 64.5344 94.9914C61.1927 96.1788 59.5218 99.5431 60.775 102.512L68.5028 123.093C69.3382 125.468 71.8445 127.051 74.3508 127.051C74.9774 127.051 75.8128 126.853 76.4394 126.655L96.0722 119.927C99.4139 118.739 101.085 115.375 99.8317 112.407C98.5785 109.438 95.0279 107.657 91.895 108.646Z" fill="#00AEEF" fill-opacity="0.08"/>
<path d="M77.0676 145.258L110.694 232.532C111.529 234.907 114.036 236.49 116.542 236.49C117.169 236.49 118.004 236.292 118.631 236.094C121.972 234.907 123.643 231.543 122.39 228.574L108.814 193.15L175.44 170.194L180.453 183.255C181.288 185.63 183.795 187.213 186.301 187.213C186.928 187.213 187.763 187.015 188.39 186.817C191.731 185.63 193.402 182.266 192.149 179.297L187.137 166.236L200.921 161.486C204.263 160.299 205.934 156.934 204.681 153.966C203.428 150.799 199.877 149.216 196.744 150.404L177.111 157.132L104.637 182.266L91.0612 146.841L114.453 138.53C117.795 137.342 119.257 133.978 118.213 130.812C116.96 127.645 113.409 126.26 110.067 127.249L80.6182 137.54C80.1546 137.714 78.3208 138.458 77.2911 140.408C76.0693 142.711 76.9235 144.904 77.0676 145.258Z" fill="#00AEEF" fill-opacity="0.08"/>
</svg>
