<svg width="100" height="20" viewBox="0 0 100 20" fill="none" xmlns="http://www.w3.org/2000/svg">
<g clip-path="url(#clip0)">
<path fill-rule="evenodd" clip-rule="evenodd" d="M16.8236 14.1133L18.626 16.5829L15.8518 15.7825V14.5512L16.8236 14.1133Z" fill="url(#paint0_linear)"/>
<path fill-rule="evenodd" clip-rule="evenodd" d="M15.8518 8.16045L18.6784 6.75439V10.0576L15.8518 11.2246V8.16045Z" fill="url(#paint1_linear)"/>
<path fill-rule="evenodd" clip-rule="evenodd" d="M12.821 0.919328L20.6467 3.67921L12.2698 6.36377L2.46436 2.85667L7.66081 0.919328C9.17807 0.475417 11.2132 0.368959 12.821 0.919328Z" fill="url(#paint2_linear)"/>
<path d="M18.6299 16.5888L22.455 14.8644L20.2235 11.8333C21.4985 10.4554 22.2271 8.70686 22.2271 6.81973C22.2271 3.7917 20.3446 2.73415 17.3854 4.06789L12.27 6.37281V19.4541L15.8519 17.8402V14.551L16.8237 14.1131L18.6299 16.5888ZM18.6147 8.44774C18.6147 9.40085 18.1445 10.1923 17.1575 10.6362L15.8519 11.2247V8.16051L17.1575 7.57197C18.1445 7.12706 18.6147 7.49464 18.6147 8.44774Z" fill="#F8B657"/>
<path fill-rule="evenodd" clip-rule="evenodd" d="M2.46436 2.85693L12.2698 6.36403V19.4544L2.46436 15.9473V2.85693Z" fill="#FFA81F"/>
<path fill-rule="evenodd" clip-rule="evenodd" d="M11.5351 10.1339V7.40116L3.23926 4.4585V15.2058L6.68004 16.427V12.9872L10.9371 14.4977V11.7639L6.68004 10.2544V8.41252L11.5351 10.1339Z" fill="url(#paint3_linear)" stroke="#FFA81F" stroke-width="0.00891154"/>
<path fill-rule="evenodd" clip-rule="evenodd" d="M6.67944 12.9873L10.9365 14.4978V11.7641L10.8431 11.7319L6.67944 12.9873Z" fill="url(#paint4_linear)"/>
<path fill-rule="evenodd" clip-rule="evenodd" d="M3.23926 15.2059L6.68004 16.4272V14.1685L3.23926 15.2059Z" fill="url(#paint5_linear)"/>
<path fill-rule="evenodd" clip-rule="evenodd" d="M6.67944 8.41266L11.5345 10.1341V7.4013L10.8431 7.15625L6.67944 8.41266Z" fill="url(#paint6_linear)"/>
</g>
<path d="M26.0926 4.19727H32.9491V5.59863H27.6307V8.33301H31.828V9.72754H27.6307V14H26.0926V4.19727ZM35.9569 4.19727V14H34.5624V4.19727H35.9569ZM44.2831 11.1289H39.0331C39.106 11.6029 39.3384 12.013 39.7303 12.3594C40.1268 12.7057 40.5962 12.8789 41.1385 12.8789C41.5305 12.8789 41.895 12.79 42.2323 12.6123C42.5741 12.4346 42.8156 12.2614 42.9569 12.0928L43.1688 11.833L44.078 12.7422C44.0506 12.7786 44.0074 12.8311 43.9481 12.8994C43.8934 12.9632 43.7727 13.0749 43.5858 13.2344C43.399 13.3893 43.2007 13.5283 42.9911 13.6514C42.7814 13.7699 42.508 13.8815 42.1708 13.9863C41.8381 14.0866 41.494 14.1367 41.1385 14.1367C40.1861 14.1367 39.3635 13.7881 38.6708 13.0908C37.9826 12.389 37.6385 11.5482 37.6385 10.5684C37.6385 9.625 37.9735 8.81836 38.6434 8.14844C39.3179 7.47396 40.1245 7.13672 41.0633 7.13672C42.0067 7.13672 42.7906 7.45117 43.4149 8.08008C44.0438 8.70443 44.3583 9.48828 44.3583 10.4316L44.2831 11.1289ZM41.0633 8.33301C40.5575 8.33301 40.1314 8.4834 39.785 8.78418C39.4432 9.0804 39.2131 9.46549 39.0946 9.93945H42.9842C42.9022 9.46549 42.6903 9.0804 42.3485 8.78418C42.0067 8.4834 41.5783 8.33301 41.0633 8.33301ZM49.2528 10.5L51.7684 14H50.162L48.412 11.5527L46.662 14H45.0487L47.5712 10.5L45.2606 7.28027H46.8671L48.412 9.44727L49.9501 7.28027H51.5633L49.2528 10.5ZM53.3817 14V4.19727H57.5106C58.4175 4.19727 59.1695 4.48665 59.7665 5.06543C60.3635 5.64421 60.662 6.3597 60.662 7.21191C60.662 7.61296 60.5936 7.98893 60.4569 8.33984C60.3202 8.6862 60.1561 8.95964 59.9647 9.16016C59.7733 9.36068 59.5819 9.53613 59.3905 9.68652C59.1991 9.83691 59.035 9.93945 58.8983 9.99414L58.7001 10.083L60.9422 14H59.2606L57.162 10.2197H54.9198V14H53.3817ZM58.6522 8.36035C58.9621 8.05046 59.1171 7.66764 59.1171 7.21191C59.1171 6.75163 58.9621 6.36882 58.6522 6.06348C58.3469 5.75358 57.9663 5.59863 57.5106 5.59863H54.9198V8.81836H57.5106C57.9663 8.81836 58.3469 8.66569 58.6522 8.36035ZM68.9198 11.1289H63.6698C63.7427 11.6029 63.9751 12.013 64.3671 12.3594C64.7635 12.7057 65.2329 12.8789 65.7753 12.8789C66.1672 12.8789 66.5318 12.79 66.869 12.6123C67.2108 12.4346 67.4523 12.2614 67.5936 12.0928L67.8055 11.833L68.7147 12.7422C68.6874 12.7786 68.6441 12.8311 68.5848 12.8994C68.5301 12.9632 68.4094 13.0749 68.2225 13.2344C68.0357 13.3893 67.8374 13.5283 67.6278 13.6514C67.4182 13.7699 67.1447 13.8815 66.8075 13.9863C66.4748 14.0866 66.1307 14.1367 65.7753 14.1367C64.8228 14.1367 64.0002 13.7881 63.3075 13.0908C62.6193 12.389 62.2753 11.5482 62.2753 10.5684C62.2753 9.625 62.6102 8.81836 63.2801 8.14844C63.9546 7.47396 64.7613 7.13672 65.7001 7.13672C66.6434 7.13672 67.4273 7.45117 68.0516 8.08008C68.6805 8.70443 68.995 9.48828 68.995 10.4316L68.9198 11.1289ZM65.7001 8.33301C65.1942 8.33301 64.7681 8.4834 64.4217 8.78418C64.0799 9.0804 63.8498 9.46549 63.7313 9.93945H67.621C67.5389 9.46549 67.327 9.0804 66.9852 8.78418C66.6434 8.4834 66.215 8.33301 65.7001 8.33301ZM75.9198 14H74.5184V13.3027C74.5002 13.321 74.4683 13.3506 74.4227 13.3916C74.3817 13.4326 74.2951 13.501 74.163 13.5967C74.0353 13.6878 73.8964 13.7721 73.746 13.8496C73.5956 13.9225 73.4064 13.9886 73.1786 14.0479C72.9507 14.1071 72.7206 14.1367 72.4881 14.1367C71.8046 14.1367 71.2372 13.9385 70.786 13.542C70.3348 13.1455 70.1092 12.6921 70.1092 12.1816C70.1092 11.6302 70.2824 11.1676 70.6288 10.7939C70.9797 10.4202 71.4582 10.1833 72.0643 10.083L74.5184 9.65918C74.5184 9.30371 74.3863 9.00521 74.1219 8.76367C73.8622 8.52214 73.5272 8.40137 73.1171 8.40137C72.7616 8.40137 72.438 8.47656 72.1464 8.62695C71.8592 8.77279 71.661 8.9209 71.5516 9.07129L71.3671 9.31055L70.4579 8.40137C70.4852 8.36491 70.5217 8.31934 70.5672 8.26465C70.6174 8.2054 70.7245 8.10514 70.8885 7.96387C71.0572 7.81803 71.2349 7.68815 71.4217 7.57422C71.6086 7.46029 71.8547 7.36003 72.16 7.27344C72.4699 7.18229 72.7889 7.13672 73.1171 7.13672C73.9374 7.13672 74.6096 7.38053 75.1337 7.86816C75.6577 8.35124 75.9198 8.94824 75.9198 9.65918V14ZM72.7001 12.8789C73.2697 12.8789 73.7141 12.7103 74.0331 12.373C74.3566 12.0312 74.5184 11.5459 74.5184 10.917V10.7803L72.3446 11.1289C72.0939 11.1745 71.8911 11.277 71.7362 11.4365C71.5812 11.596 71.5038 11.7965 71.5038 12.0381C71.5038 12.2614 71.6109 12.4574 71.8251 12.626C72.0438 12.7946 72.3355 12.8789 72.7001 12.8789ZM79.4198 4.19727V14H78.0253V4.19727H79.4198ZM82.9881 7.28027V14H81.5868V7.28027H82.9881ZM82.8924 4.58008C83.0519 4.73958 83.1317 4.9401 83.1317 5.18164C83.1317 5.42318 83.0519 5.6237 82.8924 5.7832C82.7329 5.94271 82.5324 6.02246 82.2909 6.02246C82.0493 6.02246 81.8488 5.94271 81.6893 5.7832C81.5298 5.6237 81.4501 5.42318 81.4501 5.18164C81.4501 4.9401 81.5298 4.73958 81.6893 4.58008C81.8488 4.42057 82.0493 4.34082 82.2909 4.34082C82.5324 4.34082 82.7329 4.42057 82.8924 4.58008ZM85.8592 6.43945V5.03809H87.1171V7.28027H88.5184V8.53809H87.1171V12.0244C87.1171 12.2751 87.1968 12.4801 87.3563 12.6396C87.5158 12.7992 87.7163 12.8789 87.9579 12.8789C88.0627 12.8789 88.1721 12.8675 88.286 12.8447C88.4045 12.8219 88.4956 12.7969 88.5594 12.7695L88.662 12.7422V14C88.384 14.0911 88.0559 14.1367 87.6776 14.1367C86.3697 14.1367 85.718 13.4372 85.7225 12.0381V8.53809H84.4579V7.28027H85.162C85.6268 7.28027 85.8592 7 85.8592 6.43945ZM91.9501 14.6973L92.2303 14L89.496 7.28027H90.9657L92.9276 12.1816L94.8895 7.28027H96.3592L93.3446 14.6973C92.9982 15.5267 92.6542 16.1077 92.3124 16.4404C91.9751 16.7731 91.5513 16.9395 91.0409 16.9395C90.854 16.9395 90.6786 16.9281 90.5145 16.9053C90.3504 16.8825 90.2297 16.8574 90.1522 16.8301L90.0565 16.8027V15.5381C90.2889 15.6292 90.5236 15.6771 90.7606 15.6816C91.2938 15.6771 91.6903 15.349 91.9501 14.6973Z" fill="#FAB412"/>
<defs>
<linearGradient id="paint0_linear" x1="18.2073" y1="13.3761" x2="17.2462" y2="16.4027" gradientUnits="userSpaceOnUse">
<stop stop-color="#372813"/>
<stop offset="0.67059" stop-color="#8E662E"/>
<stop offset="1" stop-color="#E6A54A"/>
</linearGradient>
<linearGradient id="paint1_linear" x1="18.3723" y1="4.91116" x2="16.8658" y2="9.72151" gradientUnits="userSpaceOnUse">
<stop stop-color="#401F06"/>
<stop offset="0.67059" stop-color="#936228"/>
<stop offset="1" stop-color="#E6A54A"/>
</linearGradient>
<linearGradient id="paint2_linear" x1="19.7712" y1="-10.9779" x2="14.8058" y2="3.14994" gradientUnits="userSpaceOnUse">
<stop stop-color="#6E4E1E"/>
<stop offset="0.54118" stop-color="#B48A4E"/>
<stop offset="1" stop-color="#FAC77F"/>
</linearGradient>
<linearGradient id="paint3_linear" x1="6.63674" y1="11.4225" x2="-3.52873" y2="11.1716" gradientUnits="userSpaceOnUse">
<stop stop-color="#3B2400"/>
<stop offset="0.67059" stop-color="#744D15"/>
<stop offset="1" stop-color="#AD772B"/>
</linearGradient>
<linearGradient id="paint4_linear" x1="10.046" y1="10.7879" x2="8.88054" y2="13.6457" gradientUnits="userSpaceOnUse">
<stop stop-color="#2E1F06"/>
<stop offset="0.67059" stop-color="#8A6228"/>
<stop offset="1" stop-color="#E6A54A"/>
</linearGradient>
<linearGradient id="paint5_linear" x1="5.96794" y1="13.4012" x2="5.00959" y2="15.7276" gradientUnits="userSpaceOnUse">
<stop stop-color="#2E1F06"/>
<stop offset="0.67059" stop-color="#8A6228"/>
<stop offset="1" stop-color="#E6A54A"/>
</linearGradient>
<linearGradient id="paint6_linear" x1="10.4604" y1="6.11748" x2="9.25719" y2="9.24363" gradientUnits="userSpaceOnUse">
<stop stop-color="#4C3511"/>
<stop offset="0.67059" stop-color="#996D2D"/>
<stop offset="1" stop-color="#E6A54A"/>
</linearGradient>
<clipPath id="clip0">
<rect width="19.9353" height="20" fill="white" transform="translate(0.323242)"/>
</clipPath>
</defs>
</svg>
