<svg width="30" height="30" viewBox="0 0 30 30" fill="none" xmlns="http://www.w3.org/2000/svg">
<path d="M30 15C30 17.9667 29.1203 20.8668 27.472 23.3335C25.8238 25.8003 23.4811 27.7229 20.7403 28.8582C17.9994 29.9935 14.9834 30.2906 12.0736 29.7118C9.16394 29.133 6.49119 27.7044 4.3934 25.6066C2.29562 23.5088 0.867006 20.8361 0.288227 17.9263C-0.290551 15.0166 0.00649921 12.0006 1.14181 9.25975C2.27713 6.51885 4.19971 4.17618 6.66645 2.52796C9.13319 0.879734 12.0333 0 15 0C18.9783 0 22.7936 1.58035 25.6066 4.3934C28.4196 7.20644 30 11.0217 30 15Z" fill="white"/>
<path d="M8.03704 15.3281C7.79391 15.3822 7.56579 15.4894 7.36907 15.6422L3.68237 18.5156L4.21909 18.9844C4.42971 19.1779 4.70532 19.2853 4.99135 19.2853C5.27738 19.2853 5.55299 19.1779 5.76361 18.9844L7.87298 17.025L25.1651 12.5063V11.5078L8.05579 15.3281" fill="#2F4859"/>
<path d="M21.471 15.3281C21.7141 15.3822 21.9422 15.4894 22.139 15.6422L25.8234 18.5156L25.3124 18.9844C25.1018 19.1779 24.8262 19.2853 24.5402 19.2853C24.2541 19.2853 23.9785 19.1779 23.7679 18.9844L21.6585 17.025L4.35205 12.4945V11.5078L21.4616 15.3281" fill="#2F4859"/>
<path d="M17.0601 15.8156L18.0233 16.875L19.3803 17.8875L21.2952 18.2812L22.5608 17.8804H22.5748L21.6373 17.0179L17.0601 15.8156ZM25.0779 12.5109L17.6085 14.4656L21.4709 15.3281C21.7141 15.3821 21.9422 15.4894 22.1389 15.6422L24.1123 17.1773L24.6842 16.4531L25.1529 14.9507V12.7992L25.0779 12.5109ZM19.9217 11.1539L16.9686 11.8265L16.3452 12.8906L16.4671 13.4507L24.41 11.6789L22.828 11.3882L19.9381 11.1539" fill="#E0E3E7"/>
<path d="M24.411 11.6743L16.4678 13.4461L16.6459 14.25L17.6092 14.4657L25.0883 12.511L24.9172 11.768L24.411 11.6743Z" fill="#8D9CA6"/>
<path d="M16.6406 14.25L16.9641 15.7148L17.0555 15.8156L21.64 17.0133L22.5776 17.8758L23.7143 17.6906L24.1151 17.1774L22.1416 15.6422C21.9449 15.4894 21.7168 15.3822 21.4736 15.3281L17.6086 14.4656L16.6406 14.25Z" fill="#8D9CA6"/>
<path d="M13.1904 15.6211L7.86294 17.0133L7.03089 17.7867L7.57934 17.8781L8.84264 18.2812L10.7575 17.8805L12.1146 16.875L13.1693 15.7242L13.1904 15.6305V15.6211ZM5.01289 12.6563L4.98242 12.7898V14.9414L5.45118 16.4438L5.78634 16.875L7.3684 15.6445C7.56511 15.4918 7.79324 15.3845 8.03638 15.3305L11.8989 14.468L5.01289 12.6563ZM10.1997 11.1445L7.3098 11.3789L5.39024 11.7375L13.6404 13.5797L13.7927 12.8766L13.1693 11.8172L10.1997 11.1539" fill="#E0E3E7"/>
<path d="M11.8991 14.4656L8.0366 15.3281C7.79348 15.3821 7.56535 15.4894 7.36864 15.6421L5.78662 16.8749L6.42646 17.6929L7.0288 17.789L7.86317 17.0156L13.1905 15.6234L13.3616 14.8499L11.8991 14.4679" fill="#8D9CA6"/>
<path d="M5.38115 11.7375L5.22178 11.768L5.01318 12.668L11.8991 14.4657L13.3616 14.8477L13.6405 13.5797L5.38115 11.7375Z" fill="#8D9CA6"/>
<path d="M25.9899 11.4118C23.9774 10.7349 21.8303 10.5587 19.7344 10.8985C16.1906 11.5313 15.4688 11.7845 15.4688 11.7845H14.6953C14.6953 11.7845 13.9922 11.5313 10.4367 10.8985C8.34002 10.5589 6.19217 10.7351 4.17885 11.4118C4.08051 11.4432 3.99528 11.5061 3.93637 11.5909C3.87747 11.6756 3.84818 11.7775 3.85306 11.8806V12.7032C3.85442 12.775 3.87224 12.8455 3.90515 12.9093C3.93807 12.9731 3.9852 13.0285 4.04291 13.0712C4.21869 13.2071 4.4601 13.5399 4.48588 14.3274C4.5351 15.5837 5.39057 18.7501 8.92497 18.4946C12.4594 18.2392 13.3125 16.3407 13.7344 15.2134C13.9688 14.597 14.0297 14.0673 14.1492 13.6642C14.1986 13.4891 14.2951 13.331 14.4282 13.207C14.5613 13.083 14.7258 12.9979 14.9039 12.961C15.134 12.9146 15.3731 12.9531 15.5769 13.0695C15.7808 13.1858 15.9355 13.3721 16.0125 13.5938C16.1438 14.0017 16.2047 14.5524 16.4438 15.1946C16.8656 16.3337 17.7094 18.2415 21.2532 18.4759C24.7969 18.7102 25.643 15.5649 25.6852 14.297C25.711 13.5071 25.9524 13.1767 26.1282 13.0407C26.1859 12.998 26.233 12.9426 26.266 12.8788C26.2989 12.815 26.3167 12.7445 26.318 12.6728V11.8688C26.3202 11.7674 26.2893 11.668 26.2302 11.5856C26.171 11.5032 26.0867 11.4422 25.9899 11.4118ZM13.0617 14.7657C12.45 16.7813 11.3953 17.6907 9.12185 17.8571C6.84839 18.0235 5.85933 16.6782 5.5687 15.8274C5.27807 14.9767 4.95932 12.9423 5.82886 12.1103C6.69839 11.2782 10.3125 11.3884 12.0422 11.9532C13.7719 12.5181 13.0617 14.7657 13.0617 14.7657ZM24.6094 15.8274C24.3118 16.6782 23.3321 18.0306 21.0563 17.8642C18.7805 17.6977 17.7258 16.7884 17.1094 14.7657C17.1094 14.7657 16.3899 12.5274 18.1266 11.9532C19.8633 11.379 23.4727 11.2688 24.3423 12.1009C25.2118 12.9329 24.9048 14.9767 24.6094 15.8274Z" fill="#3A556A"/>
</svg>
