<svg width="30" height="30" viewBox="0 0 30 30" fill="none" xmlns="http://www.w3.org/2000/svg">
<path d="M29.5 15C29.5 17.8678 28.6496 20.6713 27.0563 23.0558C25.463 25.4403 23.1984 27.2988 20.5489 28.3962C17.8994 29.4937 14.9839 29.7809 12.1712 29.2214C9.35847 28.6619 6.77482 27.2809 4.74696 25.253C2.7191 23.2252 1.33811 20.6415 0.77862 17.8288C0.219135 15.0161 0.506283 12.1006 1.60375 9.45109C2.70122 6.80156 4.55972 4.53697 6.94424 2.94369C9.32875 1.35041 12.1322 0.5 15 0.5C18.8456 0.5 22.5338 2.02767 25.253 4.74695C27.9723 7.46623 29.5 11.1544 29.5 15Z" fill="white" stroke="#1D1D1B"/>
<path d="M8.0368 15.3281C7.79367 15.3821 7.56555 15.4894 7.36884 15.6421L3.68213 18.5155L4.21885 18.9842C4.42947 19.1778 4.70508 19.2852 4.99111 19.2852C5.27714 19.2852 5.55275 19.1778 5.76337 18.9842L7.87274 17.0249L25.1649 12.5062V11.5078L8.05555 15.3281" fill="#2F4859"/>
<path d="M21.4707 15.3281C21.7138 15.3821 21.942 15.4894 22.1387 15.6421L25.823 18.5155L25.3121 18.9842C25.1015 19.1778 24.8259 19.2852 24.5398 19.2852C24.2538 19.2852 23.9782 19.1778 23.7676 18.9842L21.6582 17.0249L4.35205 12.4945V11.5078L21.4613 15.3281" fill="#2F4859"/>
<path d="M17.0601 15.8156L18.0233 16.875L19.3804 17.8875L21.2952 18.2812L22.5608 17.8805H22.5749L21.6374 17.018L17.0601 15.8156ZM25.078 12.5109L17.6085 14.4656L21.471 15.3281C21.7141 15.3821 21.9422 15.4894 22.139 15.6422L24.1124 17.1773L24.6843 16.4531L25.153 14.9507V12.7991L25.078 12.5109ZM19.9218 11.1538L16.9687 11.8265L16.3452 12.8906L16.4671 13.4507L24.4101 11.6788L22.828 11.3882L19.9382 11.1538" fill="#E0E3E7"/>
<path d="M24.4102 11.6743L16.4673 13.4463L16.6454 14.2502L17.6087 14.4658L25.0876 12.5111L24.9165 11.7681L24.4102 11.6743Z" fill="#8D9CA6"/>
<path d="M16.6401 14.25L16.9636 15.7149L17.055 15.8157L21.6394 17.0134L22.5769 17.876L23.7136 17.6908L24.1144 17.1775L22.1409 15.6423C21.9442 15.4895 21.7161 15.3822 21.4729 15.3282L17.6081 14.4656L16.6401 14.25Z" fill="#8D9CA6"/>
<path d="M13.1907 15.6211L7.86337 17.0133L7.03134 17.7867L7.57978 17.8781L8.84306 18.2812L10.7579 17.8805L12.1149 16.875L13.1696 15.7242L13.1907 15.6305V15.6211ZM5.01338 12.6563L4.98291 12.7898V14.9414L5.45166 16.4438L5.78681 16.875L7.36884 15.6445C7.56555 15.4918 7.79368 15.3845 8.03681 15.3305L11.8993 14.468L5.01338 12.6563ZM10.2001 11.1445L7.31025 11.3789L5.39072 11.7375L13.6407 13.5797L13.793 12.8766L13.1696 11.8172L10.2001 11.1539" fill="#E0E3E7"/>
<path d="M11.899 14.4653L8.03659 15.3278C7.79347 15.3818 7.56534 15.4891 7.36863 15.6418L5.78662 16.8746L6.42646 17.6925L7.02879 17.7886L7.86316 17.0152L13.1904 15.6231L13.3615 14.8497L11.899 14.4677" fill="#8D9CA6"/>
<path d="M5.38115 11.7378L5.22178 11.7683L5.01318 12.6683L11.8991 14.4661L13.3617 14.8481L13.6406 13.5801L5.38115 11.7378Z" fill="#8D9CA6"/>
<path d="M25.9898 11.4117C23.9774 10.7347 21.8302 10.5586 19.7343 10.8984C16.1906 11.5312 15.4687 11.7843 15.4687 11.7843H14.6953C14.6953 11.7843 13.9921 11.5312 10.4367 10.8984C8.34 10.5587 6.19216 10.7349 4.17885 11.4117C4.08051 11.443 3.99528 11.506 3.93637 11.5907C3.87747 11.6755 3.84818 11.7773 3.85306 11.8804V12.7031C3.85442 12.7749 3.87224 12.8454 3.90515 12.9092C3.93807 12.973 3.9852 13.0284 4.04291 13.0711C4.21869 13.207 4.4601 13.5398 4.48588 14.3274C4.5351 15.5837 5.39057 18.7502 8.92495 18.4947C12.4593 18.2392 13.3125 16.3407 13.7343 15.2133C13.9687 14.5969 14.0296 14.0672 14.1492 13.6641C14.1986 13.489 14.2951 13.3309 14.4282 13.2069C14.5612 13.0829 14.7258 12.9978 14.9039 12.9609C15.1339 12.9145 15.373 12.953 15.5769 13.0694C15.7807 13.1857 15.9355 13.372 16.0125 13.5938C16.1437 14.0016 16.2047 14.5524 16.4437 15.1946C16.8656 16.3337 17.7093 18.2415 21.2531 18.4759C24.7969 18.7103 25.643 15.5649 25.6851 14.2969C25.7109 13.507 25.9523 13.1766 26.1281 13.0406C26.1858 12.9979 26.2329 12.9425 26.2659 12.8787C26.2988 12.8149 26.3166 12.7444 26.318 12.6726V11.8687C26.3201 11.7673 26.2892 11.6679 26.2301 11.5855C26.1709 11.5031 26.0866 11.4421 25.9898 11.4117ZM13.0617 14.7657C12.45 16.7813 11.3953 17.6908 9.12182 17.8572C6.84838 18.0236 5.85932 16.6782 5.56869 15.8274C5.27807 14.9766 4.95932 12.9422 5.82885 12.1101C6.69838 11.2781 10.3125 11.3882 12.0421 11.9531C13.7718 12.5179 13.0617 14.7657 13.0617 14.7657ZM24.6094 15.8274C24.3117 16.6782 23.332 18.0306 21.0562 17.8642C18.7804 17.6978 17.7257 16.7884 17.1093 14.7657C17.1093 14.7657 16.3898 12.5273 18.1265 11.9531C19.8633 11.3788 23.4726 11.2687 24.3422 12.1007C25.2117 12.9328 24.9047 14.9766 24.6094 15.8274Z" fill="#3A556A"/>
</svg>
