<svg width="18" height="14" viewBox="0 0 18 14" fill="none" xmlns="http://www.w3.org/2000/svg">
<path d="M8.36498 7.81383C8.51467 7.97601 8.76516 8.07892 9.03279 8.07856C9.30007 8.08076 9.55127 7.97417 9.69359 7.82039L16.2958 0.844754C16.7375 0.378256 16.5874 0 15.9605 0H2.15215C1.52556 0 1.37447 0.37936 1.81442 0.84727L8.36498 7.81383Z" fill="#0072BC"/>
<path d="M0.793413 11.545L5.2872 6.72303L0.797214 1.94757C0.356916 1.4796 0 1.63338 0 2.29104V11.2059C0 11.8632 0.355162 12.0151 0.793413 11.545Z" fill="#0072BC"/>
<path d="M2.14518 13.4997H15.8527C16.4793 13.4997 16.6325 13.1182 16.1946 12.648L11.7239 7.84367L10.7267 8.89897C10.2592 9.39002 9.63745 9.60897 9.03039 9.61007C8.42537 9.60934 7.79913 9.38928 7.32568 8.8913L6.31212 7.81299L1.80435 12.6488C1.36609 13.1185 1.51859 13.4997 2.14518 13.4997Z" fill="#0072BC"/>
<path d="M18.0005 11.2044V2.40778C18.0005 1.75019 17.6425 1.5953 17.2008 2.06174L12.7559 6.75736L17.2082 11.5431C17.6456 12.0136 18.0005 11.862 18.0005 11.2044Z" fill="#0072BC"/>
</svg>
