<svg width="426" height="398" viewBox="0 0 426 398" fill="none" xmlns="http://www.w3.org/2000/svg">
<g opacity="0.5">
<path d="M411.146 124.304L200.112 4.56879C195.131 1.74485 191.108 4.04211 191.093 9.66931L190.655 161.168C190.64 166.745 194.635 173.592 199.617 176.416L410.651 296.147C415.591 298.95 419.654 296.678 419.67 291.092L420.107 139.597C420.123 133.974 416.087 127.107 411.146 124.304Z" fill="#B4BED7"/>
<path d="M425.999 136.222L425.555 287.747C425.555 290.49 424.541 292.486 422.955 293.357L417.069 296.727C418.654 295.792 419.669 293.86 419.669 291.118L420.113 139.592C420.113 133.983 416.117 127.126 411.169 124.323L200.102 4.59235C197.628 3.15884 195.345 3.03413 193.759 3.97149L199.645 0.598287C201.295 -0.336019 203.514 -0.211305 206.052 1.2222L417.056 120.953C422.003 123.756 426.063 130.613 425.999 136.222Z" fill="#D3DBEA"/>
<path d="M410.708 306.348L271.032 386.118C266.084 388.945 258.091 388.945 253.11 386.118L42.0757 266.387C39.5844 264.975 38.3324 263.113 38.3378 261.25L38.2647 271.011C38.2593 272.873 39.5109 274.736 42.0021 276.151L253.037 395.882C258.018 398.706 266.01 398.706 270.959 395.882L410.634 316.109C413.093 314.706 414.323 312.877 414.329 311.045L414.402 301.284C414.397 303.116 413.166 304.945 410.708 306.348Z" fill="#9DA9C1"/>
<path d="M410.649 296.148C415.63 298.974 415.656 303.523 410.707 306.349L271.032 386.119C266.083 388.945 258.09 388.946 253.109 386.119L42.0751 266.389C37.1344 263.586 37.0684 259.014 42.0169 256.188L181.692 176.418C186.641 173.592 194.674 173.614 199.615 176.417L410.649 296.148Z" fill="#D3DBEA"/>
<path d="M209.511 303.988C212.178 305.502 212.192 307.893 209.542 309.407L178.47 327.151C175.864 328.639 171.618 328.664 168.951 327.151L104.208 290.419C101.541 288.905 101.571 286.489 104.177 285L135.248 267.256C137.899 265.743 142.1 265.743 144.768 267.256L209.511 303.988Z" fill="#B4BED7"/>
<path d="M199.645 166.267L410.679 285.996L411.042 160.198L200.008 40.4685L199.645 166.267Z" fill="white"/>
<path d="M200.082 14.7695L200.008 40.4685L411.042 160.198L411.116 134.494L200.082 14.7695Z" fill="#FC5327"/>
<path d="M206.71 191.237L193.296 198.897L179.081 190.832L192.494 183.172L206.71 191.237Z" fill="#9DA9C1"/>
<path d="M225.878 202.111L212.464 209.771L198.249 201.706L211.662 194.046L225.878 202.111Z" fill="#9DA9C1"/>
<path d="M245.044 212.985L231.63 220.645L217.39 212.565L230.803 204.905L245.044 212.985Z" fill="#9DA9C1"/>
<path d="M264.21 223.859L250.797 231.519L236.479 223.396L249.893 215.736L264.21 223.859Z" fill="#9DA9C1"/>
<path d="M196.945 204.949L183.532 212.609L162.171 200.49L175.584 192.83L196.945 204.949Z" fill="#9DA9C1"/>
<path d="M216.111 215.823L202.698 223.483L188.406 215.374L201.82 207.714L216.111 215.823Z" fill="#9DA9C1"/>
<path d="M235.277 226.697L221.864 234.357L207.572 226.248L220.986 218.588L235.277 226.697Z" fill="#9DA9C1"/>
<path d="M254.444 237.57L241.031 245.23L226.739 237.122L240.153 229.462L254.444 237.57Z" fill="#9DA9C1"/>
<path d="M283.376 234.732L269.963 242.393L255.646 234.27L269.059 226.61L283.376 234.732Z" fill="#9DA9C1"/>
<path d="M273.61 248.444L260.196 256.104L245.879 247.981L259.292 240.322L273.61 248.444Z" fill="#9DA9C1"/>
<path d="M192.053 221.427L178.641 229.086L145.259 210.147L158.671 202.488L192.053 221.427Z" fill="#9DA9C1"/>
<path d="M211.219 232.301L197.807 239.96L183.516 231.852L196.928 224.193L211.219 232.301Z" fill="#9DA9C1"/>
<path d="M230.384 243.175L216.971 250.834L202.654 242.711L216.066 235.052L230.384 243.175Z" fill="#9DA9C1"/>
<path d="M249.552 254.049L236.14 261.708L221.822 253.585L235.234 245.926L249.552 254.049Z" fill="#9DA9C1"/>
<path d="M179.99 233.865L166.602 241.51L128.347 219.805L141.734 212.16L179.99 233.865Z" fill="#9DA9C1"/>
<path d="M199.133 244.724L185.745 252.369L171.53 244.304L184.918 236.659L199.133 244.724Z" fill="#9DA9C1"/>
<path d="M217.354 255.062L203.967 262.707L189.675 254.599L203.062 246.954L217.354 255.062Z" fill="#9DA9C1"/>
<path d="M235.551 265.386L222.164 273.031L207.872 264.922L221.259 257.277L235.551 265.386Z" fill="#9DA9C1"/>
<path d="M302.516 245.592L289.102 253.252L274.811 245.144L288.224 237.484L302.516 245.592Z" fill="#9DA9C1"/>
<path d="M292.775 259.318L279.362 266.978L265.045 258.855L278.458 251.195L292.775 259.318Z" fill="#9DA9C1"/>
<path d="M268.692 264.908L255.28 272.567L240.988 264.459L254.4 256.8L268.692 264.908Z" fill="#9DA9C1"/>
<path d="M253.72 275.695L240.333 283.34L226.041 275.231L239.428 267.586L253.72 275.695Z" fill="#9DA9C1"/>
<path d="M321.682 256.466L308.268 264.126L293.977 256.018L307.39 248.358L321.682 256.466Z" fill="#9DA9C1"/>
<path d="M340.848 267.34L327.434 275L313.143 266.891L326.556 259.231L340.848 267.34Z" fill="#9DA9C1"/>
<path d="M360.015 278.214L346.601 285.874L332.31 277.765L345.723 270.105L360.015 278.214Z" fill="#9DA9C1"/>
<path d="M379.182 289.088L365.768 296.748L351.477 288.639L364.89 280.979L379.182 289.088Z" fill="#9DA9C1"/>
<path d="M398.347 299.962L384.933 307.622L370.642 299.513L384.055 291.853L398.347 299.962Z" fill="#9DA9C1"/>
<path d="M311.917 270.178L298.503 277.838L284.212 269.729L297.625 262.069L311.917 270.178Z" fill="#9DA9C1"/>
<path d="M331.083 281.052L317.67 288.712L303.378 280.603L316.791 272.943L331.083 281.052Z" fill="#9DA9C1"/>
<path d="M381.436 309.619L368.022 317.279L322.544 291.477L335.957 283.817L381.436 309.619Z" fill="#9DA9C1"/>
<path d="M287.858 275.782L274.446 283.441L260.154 275.333L273.566 267.674L287.858 275.782Z" fill="#9DA9C1"/>
<path d="M307.024 286.656L293.612 294.315L279.32 286.207L292.732 278.548L307.024 286.656Z" fill="#9DA9C1"/>
<path d="M326.191 297.53L312.779 305.189L298.487 297.081L311.899 289.421L326.191 297.53Z" fill="#9DA9C1"/>
<path d="M364.523 319.277L351.111 326.937L317.653 307.954L331.065 300.295L364.523 319.277Z" fill="#9DA9C1"/>
<path d="M328.42 318.076L315.033 325.721L300.741 317.613L314.129 309.968L328.42 318.076Z" fill="#9DA9C1"/>
<path d="M328.42 318.076L315.033 325.721L300.741 317.613L314.129 309.968L328.42 318.076Z" fill="#9DA9C1"/>
<path d="M271.916 286.019L258.529 293.664L244.212 285.541L257.599 277.896L271.916 286.019Z" fill="#9DA9C1"/>
<path d="M290.087 296.328L276.7 303.973L262.408 295.865L275.795 288.219L290.087 296.328Z" fill="#9DA9C1"/>
<path d="M139.039 229.883L125.651 237.528L111.36 229.419L124.747 221.774L139.039 229.883Z" fill="#9DA9C1"/>
<path d="M158.205 240.756L144.818 248.401L130.526 240.293L143.913 232.648L158.205 240.756Z" fill="#9DA9C1"/>
<path d="M254.827 295.575L241.44 303.22L149.692 251.167L163.08 243.522L254.827 295.575Z" fill="#9DA9C1"/>
<path d="M273.175 305.985L259.788 313.63L245.496 305.522L258.883 297.877L273.175 305.985Z" fill="#9DA9C1"/>
<path d="M292.342 316.86L278.955 324.505L264.663 316.396L278.05 308.751L292.342 316.86Z" fill="#9DA9C1"/>
<path d="M311.509 327.733L298.122 335.378L283.83 327.27L297.217 319.625L311.509 327.733Z" fill="#9DA9C1"/>
<path d="M330.674 338.607L317.287 346.252L302.995 338.144L316.382 330.499L330.674 338.607Z" fill="#9DA9C1"/>
<path d="M395.499 133.831C392.857 132.331 390.726 133.523 390.718 136.509C390.709 139.438 392.826 143.094 395.468 144.593C398.111 146.092 400.241 144.846 400.25 141.917C400.258 138.931 398.142 135.33 395.499 133.831Z" fill="white"/>
<path d="M380.355 125.237C377.712 123.738 375.582 124.929 375.573 127.916C375.565 130.844 377.681 134.5 380.324 135.999C382.966 137.499 385.097 136.252 385.105 133.324C385.114 130.337 382.997 126.736 380.355 125.237Z" fill="white"/>
<path d="M365.205 116.643C362.563 115.144 360.432 116.335 360.424 119.322C360.415 122.25 362.532 125.906 365.174 127.405C367.817 128.905 369.947 127.658 369.956 124.73C369.964 121.743 367.848 118.142 365.205 116.643Z" fill="white"/>
<path d="M252.99 165.768L252.978 169.683L213.698 147.398L213.71 143.483L252.99 165.768Z" fill="#B4BED7"/>
<path d="M252.946 181.38L252.935 185.241L213.654 162.955L213.665 159.094L252.946 181.38Z" fill="#B4BED7"/>
<path d="M252.968 173.601L252.957 177.462L213.677 155.177L213.688 151.316L252.968 173.601Z" fill="#B4BED7"/>
<path d="M253.013 157.989L253.002 161.904L213.722 139.619L213.733 135.704L253.013 157.989Z" fill="#B4BED7"/>
<path d="M231.093 122.787L231.061 134.095L213.766 124.283L213.798 112.975L231.093 122.787Z" fill="#4C5671"/>
<path d="M231.138 107.23L231.106 118.483L213.811 108.671L213.843 97.4175L231.138 107.23Z" fill="#4C5671"/>
<path d="M253.124 119.703L253.092 130.957L235.797 121.145L235.829 109.891L253.124 119.703Z" fill="#4C5671"/>
<path d="M400.397 165.793L400.306 197.127L213.862 91.3478L213.953 60.0142L400.397 165.793Z" fill="#7BB1FF"/>
<path d="M400.221 226.533L400.209 230.447L258.42 150.003L258.431 146.088L400.221 226.533Z" fill="#FC5327"/>
<path d="M400.241 218.754L400.23 222.669L258.44 142.225L258.452 138.31L400.241 218.754Z" fill="#FC5327"/>
<path d="M400.264 210.975L400.253 214.836L258.464 134.392L258.475 130.531L400.264 210.975Z" fill="#FC5327"/>
<path d="M400.286 203.196L400.275 207.057L258.485 126.613L258.496 122.752L400.286 203.196Z" fill="#FC5327"/>
<path d="M253.078 135.261L253.045 146.568L235.75 136.756L235.783 125.448L253.078 135.261Z" fill="#4C5671"/>
<path d="M80.7416 202.534H92.2969L92.395 191.323V183.481L92.2969 194.692H80.7416C80.0072 196.231 78.9299 197.676 77.5591 199.022L77.6078 206.864C78.979 205.518 80.0561 204.073 80.7416 202.534Z" fill="#5793FB"/>
<path d="M20.4178 211.629L6.51221 203.69V211.533L20.4668 219.471L28.6927 214.805C31.0432 215.574 33.5401 216.201 36.1843 216.633V223.226L55.9657 223.176L56.0146 216.584C58.6586 216.201 61.2048 215.574 63.604 214.805L71.7321 219.471L85.7358 211.533L85.6868 203.69L71.6831 211.629L63.555 206.961C61.2048 207.731 58.6586 208.356 55.9657 208.742L55.9167 215.334H36.2333L36.1843 208.791C33.5891 208.356 31.0432 207.731 28.6437 206.961L20.4178 211.629Z" fill="#5793FB"/>
<path d="M6.70898 182.327L14.8369 186.993V179.151L6.70898 174.483V182.327Z" fill="#5793FB"/>
<path d="M77.7072 186.993L85.9331 182.327V174.483L77.6582 179.151L77.7072 186.993Z" fill="#5793FB"/>
<path d="M0 194.692V202.535H11.6044C12.339 204.027 13.367 205.518 14.7381 206.865V199.022C13.367 197.676 12.29 196.184 11.5554 194.692H0Z" fill="#5793FB"/>
<path d="M65.073 196.856V189.013C65.024 186.272 63.2124 183.577 59.5891 181.509C52.2445 177.273 40.2973 177.323 32.9527 181.46C29.2315 183.577 27.3711 186.368 27.3711 189.11V196.954C27.3711 194.21 29.2315 191.419 32.9527 189.302C40.2973 185.165 52.2445 185.118 59.6381 189.352C63.2614 191.419 65.073 194.163 65.073 196.856Z" fill="#5793FB"/>
<path d="M6.49275 203.669L14.7146 199.004C13.3511 197.656 12.3001 196.202 11.5614 194.712L0 194.694L0.127533 183.449L11.657 183.449C12.4141 181.924 13.4496 180.487 14.8282 179.139L6.69119 174.492L20.6964 166.546L28.8334 171.193C31.2063 170.413 33.7659 169.81 36.4162 169.402L36.485 162.822L56.2086 162.804L56.1719 169.402C58.8175 169.81 61.4005 170.395 63.733 171.193L71.9861 166.511L85.9315 174.475L77.6784 179.157C79.0731 180.488 80.0929 181.96 80.8004 183.467L92.3931 183.468L92.2968 194.694L80.7361 194.712C80.0118 196.22 78.9435 197.674 77.5648 199.022L85.7018 203.669L71.6966 211.615L63.5596 206.968C61.1868 207.748 58.6601 208.334 55.9769 208.759L55.9394 215.322L36.1845 215.357L36.1899 208.777C33.5754 208.351 31.0238 207.748 28.66 206.968L20.4382 211.632L6.49275 203.669ZM59.5059 196.646C66.8524 192.478 66.9216 185.684 59.5918 181.498C52.2315 177.295 40.2962 177.312 32.9497 181.48C25.5407 185.684 25.5028 192.46 32.8629 196.663C40.1928 200.849 52.0969 200.849 59.5059 196.646Z" fill="#7BB1FF"/>
<path d="M130.382 163.981L134.984 161.382L134.935 153.54L130.382 156.138V163.981Z" fill="#FC5327"/>
<path d="M90.9185 161.382L95.4721 163.981L95.4234 156.138L90.9185 153.54V161.382Z" fill="#FC5327"/>
<path d="M123.333 169.464V161.622C123.333 160.13 122.305 158.591 120.298 157.435C119.71 157.099 119.123 156.859 118.437 156.617C114.422 155.175 109.036 155.464 105.511 157.435C103.405 158.591 102.377 160.13 102.377 161.671L102.426 169.513C102.426 167.974 103.454 166.433 105.511 165.28C109.624 162.97 116.234 162.97 120.298 165.28C122.354 166.433 123.333 167.974 123.333 169.464Z" fill="#FC5327"/>
<path d="M87.1973 164.751V172.593H90.8208V177.597L98.606 182.024L103.16 179.425C104.482 179.858 105.852 180.196 107.322 180.436V184.091H118.289L118.338 180.436C119.807 180.196 121.227 179.858 122.549 179.425L127.054 182.024L134.839 177.597V172.593H138.512L138.561 166.386L138.512 158.544L138.463 164.751H132.048C131.706 165.615 131.069 166.433 130.286 167.204L130.334 172.304L127.054 174.181L122.5 171.583C121.227 172.015 119.807 172.351 118.289 172.593V176.249H107.322V172.593C105.852 172.351 104.433 172.015 103.16 171.583L98.5569 174.181L95.3744 172.351V167.157C94.6398 166.433 94.0523 165.615 93.6115 164.751H87.1973V164.751Z" fill="#FC5327"/>
<path d="M90.8052 169.754L95.3694 167.165C94.6262 166.42 94.0384 165.622 93.606 164.77L87.188 164.77L87.2549 158.509L93.6731 158.509C94.0835 157.676 94.6492 156.86 95.4312 156.132L90.8968 153.543L98.6811 149.126L103.215 151.716C104.528 151.255 105.963 150.936 107.428 150.705L107.45 147.052L118.418 147.052L118.397 150.705C119.892 150.954 121.324 151.273 122.598 151.716L127.194 149.109L134.958 153.543L130.363 156.151C131.137 156.877 131.694 157.694 132.094 158.527L138.513 158.527L138.477 164.77L132.058 164.77C131.68 165.622 131.082 166.419 130.299 167.182L134.834 169.772L127.049 174.188L122.515 171.599C121.204 172.024 119.801 172.362 118.303 172.574L118.281 176.228L107.282 176.245L107.304 172.592C105.84 172.361 104.44 172.024 103.134 171.599L98.5699 174.188L90.8052 169.754ZM120.242 165.852C124.337 163.529 124.359 159.768 120.291 157.445C116.191 155.104 109.585 155.104 105.49 157.427C101.394 159.751 101.342 163.529 105.441 165.87C109.509 168.193 116.147 168.175 120.242 165.852Z" fill="#FE91AB"/>
</g>
</svg>
