<svg width="207" height="216" viewBox="0 0 207 216" fill="none" xmlns="http://www.w3.org/2000/svg">
<path d="M154.274 115.594C125.99 115.594 102.979 138.115 102.979 165.797C102.979 193.479 125.99 216 154.274 216C182.797 216 206.001 193.479 206.001 165.797C206.001 138.115 182.797 115.594 154.274 115.594ZM170.018 159.723L152.776 179.973C151.539 181.425 149.715 182.25 147.809 182.25C147.561 182.25 147.312 182.236 147.063 182.208C144.895 181.961 143.001 180.662 142.025 178.752L135.128 165.252C133.531 162.126 134.826 158.325 138.02 156.762C141.213 155.198 145.098 156.466 146.695 159.592L149.17 164.438L160.083 151.621C162.37 148.936 166.447 148.574 169.19 150.81C171.934 153.048 172.304 157.038 170.018 159.723V159.723Z" fill="white" fill-opacity="0.1"/>
<path d="M151.963 36.0505L125.728 9.49809C125.715 9.48544 125.702 9.47236 125.69 9.4597C119.65 3.44798 111.244 0 102.631 0H19.3976C8.70176 0 0 8.51639 0 18.9844V183.094C0 193.562 8.70176 202.078 19.3976 202.078H102.329C94.8961 191.821 90.5221 179.3 90.5221 165.797C90.5221 131.136 119.334 102.938 154.75 102.938C156.932 102.938 159.088 103.045 161.216 103.251V58.2103C161.216 49.8703 157.93 42.0019 151.963 36.0505V36.0505ZM68.5382 141.328H34.0536C30.4827 141.328 27.5877 138.495 27.5877 135C27.5877 131.505 30.4827 128.672 34.0536 128.672H68.5382C72.1091 128.672 75.004 131.505 75.004 135C75.004 138.495 72.1091 141.328 68.5382 141.328ZM68.5382 107.578H34.0536C30.4827 107.578 27.5877 104.745 27.5877 101.25C27.5877 97.7552 30.4827 94.9219 34.0536 94.9219H68.5382C72.1091 94.9219 75.004 97.7552 75.004 101.25C75.004 104.745 72.1091 107.578 68.5382 107.578ZM68.5382 73.8281H34.0536C30.4827 73.8281 27.5877 70.9948 27.5877 67.5C27.5877 64.0052 30.4827 61.1719 34.0536 61.1719H68.5382C72.1091 61.1719 75.004 64.0052 75.004 67.5C75.004 70.9948 72.1091 73.8281 68.5382 73.8281ZM109.92 107.578H103.023C99.4519 107.578 96.5569 104.745 96.5569 101.25C96.5569 97.7552 99.4519 94.9219 103.023 94.9219H109.92C113.491 94.9219 116.386 97.7552 116.386 101.25C116.386 104.745 113.491 107.578 109.92 107.578ZM109.92 73.8281H103.023C99.4519 73.8281 96.5569 70.9948 96.5569 67.5C96.5569 64.0052 99.4519 61.1719 103.023 61.1719H109.92C113.491 61.1719 116.386 64.0052 116.386 67.5C116.386 70.9948 113.491 73.8281 109.92 73.8281Z" fill="white" fill-opacity="0.1"/>
</svg>
