<svg width="254" height="296" viewBox="0 0 254 296" fill="none" xmlns="http://www.w3.org/2000/svg">
<path d="M121.51 102.723C136.203 109.013 155.058 112.205 170.439 113.829C182.698 105.876 193.186 97.0629 202.148 87.9051C182.244 83.9386 168.917 71.0716 168.917 71.0716C185.425 72.4109 205.5 68.9517 221.024 65.3099C248.312 26.9294 254 0 254 0C254 0 199.136 9.66079 153.517 30.5872C50.9107 77.6493 0 162.789 0 162.789L34.5868 155.634C34.5868 155.634 35.9063 142.441 57.124 125.733C81.1599 106.808 92.4621 145.61 117.734 137.983C127.737 134.965 137.001 131.413 145.605 127.459C129.823 117.193 121.51 102.723 121.51 102.723Z" fill="white" fill-opacity="0.1"/>
<path d="M121.677 219.258H83.2393V205.069H93.8042C99.2168 205.069 103.603 200.076 103.603 193.92C103.603 187.763 99.2147 182.772 93.8042 182.772H40.3478C34.9348 182.772 30.5487 187.765 30.5487 193.92C30.5487 200.078 34.937 205.069 40.3478 205.069H50.6564V219.258H12.2188C5.47009 219.258 0 225.481 0 233.159V282.099C0 289.777 5.46967 296 12.2188 296H18.0735H115.822H121.677C128.426 296 133.896 289.777 133.896 282.099V233.158C133.895 225.481 128.426 219.258 121.677 219.258Z" fill="white" fill-opacity="0.1"/>
</svg>
