<svg width="489" height="487" viewBox="0 0 489 487" fill="none" xmlns="http://www.w3.org/2000/svg">
<path d="M244.451 15.6763C151.985 15.6763 77.0264 82.4809 77.0264 169.895C77.0264 210.966 93.5891 267.169 120.73 315.235C137.071 344.172 154.613 388.334 154.613 421.516H334.288C334.288 388.334 351.831 344.172 368.171 315.235C395.313 267.169 411.875 210.966 411.875 169.895C411.875 82.4809 336.917 15.6763 244.451 15.6763Z" fill="#DBE6FD" fill-opacity="0.2"/>
<path d="M375.123 159.75C374.928 147.312 370.281 135.351 362.016 126.01C353.751 116.669 342.409 110.559 330.023 108.775C330.027 108.516 330.064 108.265 330.064 108.005C329.793 94.0186 323.945 80.7116 313.806 71.0087C303.666 61.3058 290.066 56.001 275.993 56.2603C264.721 56.2392 253.713 59.6504 244.451 66.0346C235.188 59.6504 224.18 56.2392 212.909 56.2603C198.836 56.0009 185.235 61.3057 175.095 71.0086C164.956 80.7116 159.108 94.0186 158.837 108.005C158.837 108.265 158.874 108.516 158.878 108.775C146.492 110.559 135.15 116.669 126.885 126.01C118.62 135.351 113.974 147.312 113.778 159.75C113.811 172.581 118.764 184.917 127.628 194.246C118.764 203.575 113.811 215.911 113.778 228.742C113.974 241.18 118.62 253.141 126.885 262.482C135.15 271.823 146.492 277.933 158.878 279.717C158.874 279.976 158.837 280.227 158.837 280.487C159.109 294.473 164.956 307.78 175.096 317.483C185.235 327.186 198.836 332.491 212.909 332.232C224.18 332.253 235.188 328.841 244.451 322.457C253.713 328.841 264.721 332.253 275.993 332.232C290.066 332.491 303.667 327.186 313.806 317.483C323.945 307.78 329.793 294.473 330.064 280.487C330.064 280.227 330.027 279.976 330.023 279.717C342.409 277.933 353.752 271.823 362.016 262.482C370.281 253.141 374.928 241.18 375.123 228.742C375.09 215.911 370.137 203.575 361.274 194.246C370.137 184.917 375.09 172.581 375.123 159.75Z" fill="#FFDE00" fill-opacity="0.1"/>
<path d="M212.909 56.2603C198.836 56.0009 185.235 61.3057 175.095 71.0086C164.956 80.7116 159.108 94.0186 158.837 108.005C158.837 108.265 158.874 108.516 158.878 108.775C146.492 110.559 135.15 116.669 126.885 126.01C118.62 135.351 113.974 147.312 113.778 159.75C113.811 172.581 118.764 184.917 127.628 194.246C118.764 203.575 113.811 215.911 113.778 228.742C113.974 241.18 118.62 253.141 126.885 262.482C135.15 271.823 146.492 277.933 158.878 279.717C158.874 279.976 158.837 280.227 158.837 280.487C159.109 294.473 164.956 307.78 175.096 317.483C185.235 327.186 198.836 332.491 212.909 332.232C224.18 332.253 235.188 328.841 244.451 322.457V66.0346C235.188 59.6504 224.18 56.2392 212.909 56.2603Z" fill="#FBAB16" fill-opacity="0.1"/>
<path d="M236.284 364.699H252.618V429.633H236.284V364.699Z" fill="#FBAB16" fill-opacity="0.1"/>
<path d="M326.121 421.516H162.78C153.759 421.516 146.446 428.784 146.446 437.75C146.446 446.715 153.759 453.983 162.78 453.983H326.121C335.142 453.983 342.455 446.715 342.455 437.75C342.455 428.784 335.142 421.516 326.121 421.516Z" fill="#0072BC" fill-opacity="0.1"/>
<path d="M162.781 429.633H326.122C329.734 429.64 333.243 430.839 336.095 433.043C338.947 435.247 340.981 438.33 341.878 441.808C342.542 439.412 342.636 436.894 342.153 434.455C341.671 432.016 340.624 429.722 339.096 427.754C337.568 425.786 335.6 424.198 333.348 423.115C331.097 422.033 328.623 421.485 326.122 421.516H162.781C160.28 421.485 157.806 422.033 155.554 423.115C153.302 424.198 151.335 425.786 149.807 427.754C148.279 429.722 147.232 432.016 146.749 434.455C146.266 436.894 146.36 439.412 147.024 441.808C147.921 438.33 149.956 435.247 152.808 433.043C155.66 430.839 159.168 429.64 162.781 429.633Z" fill="#0072BC" fill-opacity="0.1"/>
<path d="M326.121 453.983H162.78C153.759 453.983 146.446 461.252 146.446 470.217C146.446 479.183 153.759 486.451 162.78 486.451H326.121C335.142 486.451 342.455 479.183 342.455 470.217C342.455 461.252 335.142 453.983 326.121 453.983Z" fill="#0072BC" fill-opacity="0.1"/>
<path d="M466.485 1.15656C468.073 6.10776 470.832 10.609 474.529 14.2836C478.226 17.9583 482.756 20.6995 487.737 22.2781C488.072 22.3689 488.367 22.5663 488.577 22.84C488.787 23.1138 488.901 23.4486 488.901 23.793C488.901 24.1374 488.787 24.4723 488.577 24.746C488.367 25.0197 488.072 25.2172 487.737 25.3079C482.756 26.8865 478.226 29.6278 474.529 33.3024C470.832 36.9771 468.073 41.4783 466.485 46.4295C466.394 46.7617 466.195 47.0549 465.92 47.2638C465.644 47.4728 465.307 47.586 464.961 47.586C464.614 47.586 464.277 47.4728 464.002 47.2638C463.726 47.0549 463.528 46.7617 463.436 46.4295C461.848 41.4783 459.09 36.9771 455.393 33.3024C451.695 29.6278 447.166 26.8865 442.184 25.3079C441.85 25.2172 441.555 25.0197 441.345 24.746C441.134 24.4723 441.021 24.1374 441.021 23.793C441.021 23.4486 441.134 23.1138 441.345 22.84C441.555 22.5663 441.85 22.3689 442.184 22.2781C447.166 20.6995 451.695 17.9583 455.393 14.2836C459.09 10.609 461.848 6.10776 463.436 1.15656C463.528 0.824342 463.726 0.531172 464.002 0.322189C464.277 0.113206 464.614 0 464.961 0C465.307 0 465.644 0.113206 465.92 0.322189C466.195 0.531172 466.394 0.824342 466.485 1.15656Z" fill="#FFDE00" fill-opacity="0.1"/>
<path d="M25.4646 1.15656C27.0529 6.10776 29.8112 10.609 33.5086 14.2836C37.206 17.9583 41.7351 20.6995 46.7169 22.2781C47.0512 22.3689 47.3462 22.5663 47.5564 22.84C47.7667 23.1138 47.8806 23.4486 47.8806 23.793C47.8806 24.1374 47.7667 24.4723 47.5564 24.746C47.3462 25.0197 47.0512 25.2172 46.7169 25.3079C41.7351 26.8865 37.206 29.6278 33.5086 33.3024C29.8112 36.9771 27.0529 41.4783 25.4646 46.4295C25.3733 46.7617 25.1746 47.0549 24.8992 47.2638C24.6238 47.4728 24.2868 47.586 23.9403 47.586C23.5938 47.586 23.2569 47.4728 22.9814 47.2638C22.706 47.0549 22.5073 46.7617 22.416 46.4295C20.8277 41.4783 18.0694 36.9771 14.372 33.3024C10.6746 29.6278 6.14557 26.8865 1.16372 25.3079C0.829445 25.2172 0.53446 25.0197 0.324183 24.746C0.113907 24.4723 0 24.1374 0 23.793C0 23.4486 0.113907 23.1138 0.324183 22.84C0.53446 22.5663 0.829445 22.3689 1.16372 22.2781C6.14557 20.6995 10.6746 17.9583 14.372 14.2836C18.0694 10.609 20.8277 6.10776 22.416 1.15656C22.5073 0.824342 22.706 0.531172 22.9814 0.322189C23.2569 0.113206 23.5938 0 23.9403 0C24.2868 0 24.6238 0.113206 24.8992 0.322189C25.1746 0.531172 25.3733 0.824342 25.4646 1.15656Z" fill="#FFDE00" fill-opacity="0.1"/>
<path d="M49.9656 333.945C51.5539 338.897 54.3122 343.398 58.0096 347.072C61.707 350.747 66.236 353.488 71.2179 355.067C71.5522 355.158 71.8471 355.355 72.0574 355.629C72.2677 355.903 72.3816 356.237 72.3816 356.582C72.3816 356.926 72.2677 357.261 72.0574 357.535C71.8471 357.809 71.5522 358.006 71.2179 358.097C66.236 359.675 61.707 362.417 58.0096 366.091C54.3122 369.766 51.5539 374.267 49.9656 379.218C49.8743 379.551 49.6756 379.844 49.4002 380.053C49.1247 380.262 48.7878 380.375 48.4413 380.375C48.0948 380.375 47.7579 380.262 47.4824 380.053C47.207 379.844 47.0083 379.551 46.917 379.218C45.3287 374.267 42.5704 369.766 38.873 366.091C35.1756 362.417 30.6466 359.675 25.6647 358.097C25.3304 358.006 25.0354 357.809 24.8252 357.535C24.6149 357.261 24.501 356.926 24.501 356.582C24.501 356.237 24.6149 355.903 24.8252 355.629C25.0354 355.355 25.3304 355.158 25.6647 355.067C30.6466 353.488 35.1756 350.747 38.873 347.072C42.5704 343.398 45.3287 338.897 46.917 333.945C47.0083 333.613 47.207 333.32 47.4824 333.111C47.7579 332.902 48.0948 332.789 48.4413 332.789C48.7878 332.789 49.1247 332.902 49.4002 333.111C49.6756 333.32 49.8743 333.613 49.9656 333.945Z" fill="#FFDE00" fill-opacity="0.1"/>
<path d="M433.817 333.945C435.405 338.897 438.164 343.398 441.861 347.072C445.559 350.747 450.088 353.488 455.069 355.067C455.404 355.158 455.699 355.355 455.909 355.629C456.119 355.903 456.233 356.237 456.233 356.582C456.233 356.926 456.119 357.261 455.909 357.535C455.699 357.809 455.404 358.006 455.069 358.097C450.088 359.675 445.559 362.417 441.861 366.091C438.164 369.766 435.405 374.267 433.817 379.218C433.726 379.551 433.527 379.844 433.252 380.053C432.976 380.262 432.639 380.375 432.293 380.375C431.946 380.375 431.609 380.262 431.334 380.053C431.059 379.844 430.86 379.551 430.769 379.218C429.18 374.267 426.422 369.766 422.725 366.091C419.027 362.417 414.498 359.675 409.516 358.097C409.182 358.006 408.887 357.809 408.677 357.535C408.466 357.261 408.353 356.926 408.353 356.582C408.353 356.237 408.466 355.903 408.677 355.629C408.887 355.355 409.182 355.158 409.516 355.067C414.498 353.488 419.027 350.747 422.725 347.072C426.422 343.398 429.18 338.897 430.769 333.945C430.86 333.613 431.059 333.32 431.334 333.111C431.609 332.902 431.946 332.789 432.293 332.789C432.639 332.789 432.976 332.902 433.252 333.111C433.527 333.32 433.726 333.613 433.817 333.945Z" fill="#FFDE00" fill-opacity="0.1"/>
<path d="M154.613 194.246C144.517 194.226 134.788 190.477 127.318 183.727C119.847 176.976 115.168 167.707 114.19 157.72C113.983 159.065 113.845 160.42 113.778 161.779C113.778 172.542 118.08 182.865 125.738 190.476C133.396 198.087 143.783 202.363 154.613 202.363C165.443 202.363 175.83 198.087 183.488 190.476C191.146 182.865 195.448 172.542 195.448 161.779C195.381 160.42 195.244 159.065 195.037 157.72C194.058 167.707 189.379 176.976 181.909 183.727C174.438 190.477 164.71 194.226 154.613 194.246Z" fill="#FFDE00" fill-opacity="0.1"/>
<path d="M309.787 178.75C320.311 179.188 330.29 183.517 337.768 190.889C345.246 198.26 349.683 208.142 350.211 218.596C350.348 217.119 350.623 215.685 350.623 214.169C351.093 202.922 347.06 191.948 339.406 183.649C331.753 175.351 321.102 170.406 309.787 169.895C298.472 170.406 287.822 175.351 280.168 183.649C272.515 191.948 268.481 202.922 268.952 214.169C268.952 215.685 269.226 217.119 269.364 218.596C269.891 208.142 274.329 198.26 281.807 190.889C289.285 183.517 299.264 179.188 309.787 178.75Z" fill="#FAA817" fill-opacity="0.1"/>
<path d="M195.448 123.408C187.718 123.693 180.152 121.144 174.189 116.246C168.227 111.348 164.284 104.443 163.11 96.8443C162.944 97.8212 162.834 98.8066 162.78 99.7959C163.193 108.009 166.861 115.725 172.983 121.256C179.106 126.788 187.183 129.684 195.448 129.311C203.714 129.684 211.791 126.788 217.914 121.256C224.036 115.725 227.704 108.009 228.117 99.7959C228.063 98.8066 227.953 97.8212 227.787 96.8443C226.613 104.443 222.67 111.348 216.707 116.246C210.745 121.144 203.179 123.693 195.448 123.408Z" fill="#FFDE00" fill-opacity="0.1"/>
<path d="M204.547 281.627C210.216 286.858 213.752 293.978 214.484 301.631C215.215 309.285 213.091 316.939 208.514 323.137C209.326 322.563 210.105 321.943 210.847 321.282C216.045 315.025 218.71 307.068 218.322 298.964C217.934 290.86 214.52 283.19 208.747 277.453C202.975 271.716 195.258 268.323 187.103 267.937C178.949 267.551 170.942 270.2 164.647 275.366C163.982 276.103 163.358 276.877 162.78 277.685C169.017 273.136 176.718 271.025 184.419 271.752C192.12 272.479 199.284 275.993 204.547 281.627Z" fill="#FFDE00" fill-opacity="0.1"/>
<path d="M211.782 216.383C219.513 216.098 227.079 218.647 233.041 223.545C239.004 228.443 242.947 235.348 244.121 242.947C244.287 241.97 244.397 240.984 244.451 239.995C244.038 231.782 240.37 224.066 234.248 218.535C228.125 213.003 220.048 210.107 211.782 210.479C203.517 210.107 195.44 213.003 189.317 218.535C183.195 224.066 179.527 231.782 179.114 239.995C179.168 240.984 179.278 241.97 179.444 242.947C180.618 235.348 184.561 228.443 190.523 223.545C196.486 218.647 204.052 216.098 211.782 216.383Z" fill="#FFDE00" fill-opacity="0.1"/>
<path d="M293.453 301.978C285.723 302.263 278.157 299.714 272.194 294.816C266.231 289.918 262.288 283.013 261.114 275.414C260.949 276.391 260.839 277.376 260.785 278.365C261.56 286.442 265.337 293.942 271.378 299.399C277.419 304.857 285.289 307.881 293.453 307.881C301.617 307.881 309.487 304.857 315.528 299.399C321.568 293.942 325.345 286.442 326.121 278.365C326.067 277.376 325.957 276.391 325.792 275.414C324.618 283.013 320.674 289.918 314.712 294.816C308.749 299.714 301.183 302.263 293.453 301.978Z" fill="#FAA817" fill-opacity="0.1"/>
<path d="M289.694 109.342C294.285 104.429 300.533 101.363 307.249 100.729C313.965 100.095 320.682 101.937 326.121 105.904C325.617 105.2 325.073 104.525 324.493 103.882C319.142 99.0695 312.092 96.5594 304.884 96.9005C297.676 97.2416 290.897 100.406 286.031 105.702C280.703 110.538 277.519 117.275 277.175 124.439C276.832 131.602 279.358 138.609 284.2 143.927C284.847 144.504 285.526 145.044 286.234 145.545C282.243 140.139 280.39 133.464 281.028 126.789C281.666 120.114 284.75 113.905 289.694 109.342Z" fill="#FAA817" fill-opacity="0.1"/>
</svg>
