<svg width="40" height="40" viewBox="0 0 40 40" fill="none" xmlns="http://www.w3.org/2000/svg">
<path d="M0 20.0005C0 8.95379 8.95441 0 19.9998 0C31.0456 0 40 8.95379 40 20.0005C40 31.0456 31.0456 40 19.9998 40C8.95441 40 0 31.0456 0 20.0005Z" fill="#333333"/>
<path d="M31.8018 12.1984L27.8019 8.19848C26.9371 7.33358 25.5349 7.33374 24.6703 8.19848L18.4923 14.3764C17.6276 15.2413 17.6275 16.6434 18.4923 17.5083L22.4922 21.5082C23.357 22.373 24.7591 22.3729 25.6239 21.508L31.8018 15.3301C32.6664 14.4654 32.6665 13.0632 31.8018 12.1984ZM25.2012 18.9797C24.6942 19.4866 23.8723 19.4867 23.3654 18.9798L21.0206 16.635C20.5137 16.1281 20.5138 15.3061 21.0207 14.7991L25.0929 10.7269C25.5997 10.22 26.4217 10.22 26.9287 10.7269L29.2734 13.0717C29.7804 13.5786 29.7803 14.4005 29.2734 14.9075L25.2012 18.9797Z" fill="white"/>
<path d="M21.5088 22.4917L17.509 18.4918C16.6442 17.627 15.242 17.6271 14.3773 18.4918L8.19935 24.67C7.33463 25.5347 7.33455 26.9368 8.19935 27.8016L12.1993 31.8016C13.064 32.6664 14.4662 32.6662 15.3309 31.8016L21.5089 25.6234C22.3735 24.7587 22.3736 23.3566 21.5088 22.4917ZM14.9082 29.2731C14.4013 29.78 13.5794 29.7802 13.0724 29.2731L10.7277 26.9284C10.2206 26.4214 10.2207 25.5995 10.7277 25.0926L14.7999 21.0203C15.3068 20.5134 16.1287 20.5133 16.6357 21.0203L18.9804 23.365C19.4874 23.872 19.4873 24.694 18.9804 25.2008L14.9082 29.2731Z" fill="white"/>
<path d="M24.7424 15.4526L24.5473 15.2574C23.9231 14.6331 22.9075 14.6331 22.2832 15.2574L15.2572 22.2835C14.633 22.9077 14.633 23.9233 15.2572 24.5475L15.4523 24.7427C16.0764 25.3668 17.0921 25.3668 17.7163 24.7427L24.7424 17.7165C25.3665 17.0924 25.3665 16.0766 24.7424 15.4526Z" fill="#333333"/>
<path d="M17.3651 24.3913C16.934 24.8225 16.2349 24.8225 15.8037 24.3914L15.6085 24.1962C15.1774 23.765 15.1774 23.0659 15.6085 22.6348L22.6347 15.6086C23.0658 15.1774 23.7649 15.1774 24.1961 15.6088L24.3912 15.8039C24.8223 16.235 24.8224 16.9341 24.3912 17.3652L17.3651 24.3913Z" fill="white"/>
</svg>
