<svg width="16" height="18" viewBox="0 0 16 18" fill="none" xmlns="http://www.w3.org/2000/svg">
<path d="M13.3034 2.21032C11.8868 0.784972 10.0033 0 8.00007 0C5.99677 0 4.11335 0.784937 2.6967 2.21032C1.28015 3.63563 0.5 5.53063 0.5 7.54632C0.5 9.56201 1.28015 11.4571 2.6967 12.8824L7.62949 17.8456C7.73183 17.9486 7.86597 18 8.00007 18C8.13421 18 8.26834 17.9485 8.37065 17.8456L13.3033 12.8825C14.7199 11.4571 15.5 9.56205 15.5 7.54635C15.5 5.53059 14.7199 3.63559 13.3034 2.21032ZM10.3555 9.91621C9.72633 10.5492 8.88986 10.8979 8.0001 10.8979C7.11035 10.8979 6.27388 10.5493 5.64478 9.91625C5.01561 9.28322 4.66914 8.44158 4.66914 7.54632C4.66914 6.6511 5.01561 5.80945 5.64478 5.17639C6.27388 4.54337 7.11035 4.19475 8.0001 4.19475C8.88986 4.19475 9.72633 4.54337 10.3555 5.17639C10.9846 5.80938 11.3311 6.65103 11.3311 7.54628C11.3311 8.44154 10.9846 9.28322 10.3555 9.91621Z" fill="#0072BC"/>
</svg>
