<svg width="231" height="182" viewBox="0 0 231 182" fill="none" xmlns="http://www.w3.org/2000/svg">
<path d="M229.929 7.8819L175.79 170.697C174.439 174.734 169.083 176.346 165.333 173.86C161.853 171.547 73.4623 112.8 68.6732 109.617L4.68982 87.558C2.08275 86.659 0.359943 84.4026 0.353409 81.8786C0.346875 79.3546 2.0634 77.0873 4.66706 76.1777L221.039 0.446222C223.654 -0.472389 226.653 0.167256 228.541 2.10831C230.063 3.67461 230.603 5.85486 229.929 7.8819Z" fill="#CCEFFC"/>
<path d="M229.931 7.87851L175.792 170.693C174.442 174.731 169.085 176.343 165.335 173.856L79.6414 116.902L228.544 2.10492C230.066 3.67122 230.606 5.85147 229.931 7.87851Z" fill="#FFF8CC"/>
<path d="M228.386 10.2996L106.837 127.237L78.7358 178.177C77.3262 180.722 74.1722 182.039 71.1653 181.397C68.1232 180.76 65.968 178.314 65.9556 175.49L65.6443 104.241C65.6357 102.266 66.6841 100.412 68.4594 99.258L219.543 1.17699C222.363 -0.65621 226.258 -0.254593 228.544 2.10499C230.833 4.46456 230.764 8.01313 228.386 10.2996Z" fill="#EEF4FF"/>
<path d="M228.386 10.2997L106.837 127.237L78.7354 178.177C77.3258 180.722 74.1719 182.039 71.1649 181.397C68.1228 180.76 65.9676 178.314 65.9553 175.49L79.6411 116.902L228.543 2.10503C230.833 4.4646 230.763 8.01317 228.386 10.2997Z" fill="#D9E6FC"/>
</svg>
