<svg width="60" height="76" viewBox="0 0 60 76" fill="none" xmlns="http://www.w3.org/2000/svg">
<path d="M59.9837 17.8181L41.1845 0H3.03315C1.3586 0 0 1.28661 0 2.87244V53.8433H59.9837V17.8181Z" fill="#EFF3F5"/>
<path d="M41.1846 14.9457C41.1846 16.5315 42.5432 17.8181 44.2177 17.8181H59.9996L41.1846 0V14.9457Z" fill="#DBDFE0"/>
<path d="M0.0166016 53.8283V73.1275C0.0166016 74.7133 1.3752 76 3.04975 76H56.9671C58.6417 76 60.0003 74.7133 60.0003 73.1275V53.8283H0.0166016Z" fill="#FF220B"/>
<path d="M14.6123 50.5669C13.6486 50.5669 12.7166 50.2229 11.8635 49.5496C10.4259 48.4126 10.3153 47.1559 10.4575 46.3032C11.1526 42.4583 18.7039 38.9425 23.0956 37.2071C25.4811 31.552 27.5506 24.8945 28.8302 19.8977C26.271 14.7063 25.3705 11.041 26.1604 8.96144C26.5553 7.92915 27.361 7.25592 28.4984 7.01655L28.6564 6.98663L28.8144 7.00159C28.9408 7.01655 30.0624 7.18112 30.9787 8.34805C32.1635 9.87403 32.4321 12.3425 31.7686 15.6937C31.579 16.6512 31.263 18.0276 30.8523 19.6732C33.1903 24.2811 36.4762 29.3677 39.1618 32.8984C41.4051 32.5992 43.5378 32.4945 45.3387 32.674C48.7036 33.0032 49.4145 34.3945 49.5409 35.2024C49.7305 36.3843 48.8142 37.611 47.2502 38.2394C45.086 39.1071 41.5473 38.8827 38.6721 35.352C38.5457 35.2024 38.4194 35.0378 38.293 34.8732C34.5963 35.4567 30.2994 36.5638 25.9392 38.1047C25.4811 38.2693 25.0388 38.4339 24.5964 38.5984C21.6423 45.4504 18.7513 49.3851 15.9867 50.3276C15.5444 50.4921 15.0704 50.5669 14.6123 50.5669ZM22.0372 39.6307C15.7655 42.3087 12.6534 44.9567 12.369 46.6173C12.3058 46.9764 12.3058 47.5299 13.1115 48.1583C13.854 48.7417 14.5649 48.8914 15.3548 48.6221C17.5507 47.874 19.8887 44.2835 22.0372 39.6307ZM40.5204 34.589C42.6531 36.9677 45.0544 37.1622 46.5078 36.5638C47.266 36.2646 47.6926 35.7559 47.6452 35.4717C47.5978 35.1725 46.8869 34.6638 45.1492 34.4992C43.8538 34.3795 42.2898 34.4095 40.5204 34.589ZM30.1572 22.411C29.1935 25.9268 27.8823 30.1606 26.35 34.2599C26.0814 34.963 25.8286 35.6362 25.5601 36.2945C28.9882 35.0977 33.1271 33.9307 37.0608 33.2276C34.9439 30.3701 32.3373 26.4055 30.1572 22.411ZM28.7354 8.87167C28.3721 8.99136 28.1351 9.21577 27.9929 9.60474C27.44 11.041 28.1667 13.7488 29.5727 16.9504C29.6991 16.3819 29.8096 15.8583 29.9044 15.3795C30.6311 11.6543 29.936 10.0536 29.4463 9.44018C29.1777 9.09608 28.8934 8.93151 28.7354 8.87167Z" fill="#FF220B"/>
<path d="M44.2821 63.7622H40.6645V60.2764H44.2821C44.9614 60.2764 45.5143 59.7527 45.5143 59.1094C45.5143 58.4661 44.9614 57.9425 44.2821 57.9425H39.448C38.7687 57.9425 38.2158 58.4661 38.2158 59.1094V70.7189C38.2158 71.3622 38.7687 71.8858 39.448 71.8858C40.1273 71.8858 40.6803 71.3622 40.6803 70.7189V66.0811H44.2979C44.9772 66.0811 45.5301 65.5575 45.5301 64.9142C45.5143 64.2709 44.9614 63.7622 44.2821 63.7622Z" fill="#EFF3F5"/>
<path d="M18.2146 57.9574H15.7185C15.0392 57.9574 14.4863 58.481 14.4863 59.1243V70.7338C14.4863 71.3771 15.0392 71.9007 15.7185 71.9007C16.3978 71.9007 16.9508 71.3771 16.9508 70.7338V66.096H18.2146C20.5842 66.096 22.5115 64.2708 22.5115 62.0267C22.5115 59.7826 20.5842 57.9574 18.2146 57.9574ZM18.2146 63.7621H16.9508V60.2763H18.2146C19.2256 60.2763 20.0471 61.0542 20.0471 62.0117C20.0471 62.9692 19.2256 63.7621 18.2146 63.7621Z" fill="#EFF3F5"/>
<path d="M28.7987 57.9567H25.576C24.8967 57.9567 24.3438 58.4804 24.3438 59.1237V70.7331C24.3438 71.3764 24.8967 71.9 25.576 71.9H28.7987C32.8587 71.9 36.1604 68.7733 36.1604 64.9284C36.1604 61.0685 32.8587 57.9567 28.7987 57.9567ZM28.7987 69.5512H26.8082V60.2607H28.7987C31.5001 60.2607 33.696 62.3402 33.696 64.8985C33.7118 67.4717 31.5001 69.5512 28.7987 69.5512Z" fill="#EFF3F5"/>
</svg>
