<svg width="18" height="17" viewBox="0 0 18 17" fill="none" xmlns="http://www.w3.org/2000/svg">
<path d="M16.3333 11.7823C14.7512 11.7823 13.2423 11.4377 11.8508 10.7575C11.6327 10.653 11.3797 10.6365 11.1487 10.7153C10.9177 10.796 10.7288 10.9647 10.6225 11.1828L9.9625 12.5487C7.9825 11.412 6.33983 9.7675 5.20133 7.7875L6.569 7.1275C6.789 7.02117 6.95583 6.83233 7.0365 6.60133C7.11533 6.37033 7.10067 6.11733 6.99433 5.89917C6.31233 4.5095 5.96767 3.00067 5.96767 1.41667C5.96767 0.910667 5.557 0.5 5.051 0.5H1.66667C1.16067 0.5 0.75 0.910667 0.75 1.41667C0.75 10.0095 7.7405 17 16.3333 17C16.8393 17 17.25 16.5893 17.25 16.0833V12.699C17.25 12.193 16.8393 11.7823 16.3333 11.7823Z" fill="#0072BC"/>
</svg>
