<svg width="48" height="31" viewBox="0 0 48 31" fill="none" xmlns="http://www.w3.org/2000/svg">
<path d="M46.2147 17.5154H1.78512C0.799289 17.5154 0 16.613 0 15.5C0 14.387 0.799289 13.4846 1.78512 13.4846H46.2149C47.2007 13.4846 48 14.387 48 15.5C48 16.613 47.2007 17.5154 46.2147 17.5154Z" fill="white"/>
<path d="M16.592 31C16.1985 31 15.8023 30.8539 15.4724 30.5533L0.664363 17.0686C0.244265 16.686 0 16.1093 0 15.5C0 14.8907 0.244265 14.3139 0.664363 13.9313L15.4724 0.446696C16.2398 -0.251972 17.3636 -0.116271 17.9826 0.750179C18.6016 1.61646 18.4812 2.88532 17.7138 3.58415L4.62837 15.4998L17.7138 27.4158C18.4812 28.1146 18.6014 29.3835 17.9826 30.2498C17.6299 30.7434 17.1132 31 16.592 31Z" fill="white"/>
</svg>
