<svg width="48" height="31" viewBox="0 0 48 31" fill="none" xmlns="http://www.w3.org/2000/svg">
<path d="M1.78527 17.5154H46.2149C47.2007 17.5154 48 16.613 48 15.5C48 14.387 47.2007 13.4846 46.2149 13.4846H1.78512C0.799286 13.4846 0 14.387 0 15.5C0 16.613 0.79929 17.5154 1.78527 17.5154Z" fill="white"/>
<path d="M31.4081 31C31.8015 31 32.1977 30.8539 32.5276 30.5533L47.3356 17.0686C47.7557 16.686 48 16.1093 48 15.5C48 14.8907 47.7557 14.3139 47.3356 13.9313L32.5276 0.446696C31.7602 -0.251972 30.6364 -0.116271 30.0175 0.750179C29.3985 1.61646 29.5188 2.88532 30.2863 3.58415L43.3716 15.4998L30.2863 27.4158C29.5188 28.1146 29.3986 29.3835 30.0175 30.2498C30.3702 30.7434 30.8868 31 31.4081 31Z" fill="white"/>
</svg>
